<svg width="36" height="36" viewBox="0 0 36 36" fill="none" xmlns="http://www.w3.org/2000/svg">
<g id="cat-toy-svgrepo-com 1" clip-path="url(#clip0_218_1055)">
<path id="Vector" d="M32.6327 3.58242L29.2248 0.174502C28.9915 -0.0588183 28.6131 -0.0588183 28.3797 0.174502C28.1463 0.407821 28.1464 0.786167 28.3797 1.01949L31.7877 4.42733C32.9796 5.61924 32.9796 7.55863 31.7877 8.75061C31.2159 9.32234 30.4462 9.6299 29.6242 9.61865C28.8009 9.60663 28.0263 9.2789 27.4431 8.69577L22.9707 4.22333C21.3129 2.56542 18.619 2.56169 16.9658 4.21489C15.308 5.87274 15.308 8.57029 16.9658 10.2281L18.5694 11.8317C17.3171 11.3971 15.9874 11.1701 14.6227 11.1701C11.4163 11.1701 8.40182 12.4187 6.13456 14.686C1.45417 19.3664 1.45417 26.9819 6.13456 31.6623C8.40182 33.9295 11.4163 35.1782 14.6227 35.1782C17.8291 35.1782 20.8436 33.9295 23.1109 31.6623C25.3781 29.395 26.6268 26.3806 26.6268 23.1741C26.6268 19.9677 25.3781 16.9532 23.1109 14.686C23.0576 14.6327 23.0035 14.5804 22.9493 14.5283L17.8108 9.38301C16.619 8.1911 16.619 6.25178 17.8108 5.05981C18.9982 3.87254 20.9337 3.87634 22.1257 5.06824L26.5981 9.54069C27.4023 10.3449 28.4708 10.7969 29.6067 10.8134C30.7542 10.8293 31.8305 10.3977 32.6326 9.59552C34.2906 7.93782 34.2906 5.24026 32.6327 3.58242ZM20.5195 14.112C19.075 14.2346 17.6684 14.5416 16.328 15.0232C16.2999 15.0088 16.2707 14.996 16.2397 14.986C13.6317 14.1466 10.9002 13.9686 8.23619 14.4514C10.0778 13.0971 12.2939 12.3651 14.6227 12.3651C16.7487 12.3652 18.7806 12.9755 20.5195 14.112ZM8.31465 21.1847C6.83888 21.1387 5.36655 21.2904 3.92783 21.6377C4.01858 21.0004 4.16663 20.37 4.37092 19.7542C4.38146 19.7511 4.39208 19.7483 4.40255 19.7446C6.50123 19.0107 8.35008 18.7304 10.2652 18.8648C10.2501 18.8798 10.2346 18.8943 10.2197 18.9093C9.51119 19.6178 8.87549 20.3795 8.31465 21.1847ZM11.4549 17.7903C11.4535 17.79 11.4521 17.7896 11.4507 17.7894C9.26698 17.476 7.23269 17.634 4.9726 18.3046C5.3676 17.5204 5.86391 16.7747 6.46187 16.0871C9.00997 15.3462 11.9362 15.2088 14.5666 15.7756C13.4649 16.324 12.4216 16.9978 11.4549 17.7903ZM3.82252 22.8984C5.04704 22.5693 6.30004 22.3936 7.55985 22.3736C6.41083 24.3664 5.69196 26.5794 5.45154 28.8968C4.31278 27.0722 3.76987 24.9791 3.82252 22.8984ZM6.55902 30.3717C6.62714 26.3601 8.22038 22.5987 11.0647 19.7544C13.9307 16.8885 17.919 15.2928 21.9705 15.2476C22.0703 15.3402 22.169 15.4343 22.2658 15.5311C22.6775 15.9427 23.0511 16.3822 23.3865 16.8445C15.343 17.47 8.9074 23.8201 8.17391 31.851C7.75507 31.5384 7.35585 31.1935 6.97961 30.8173C6.83424 30.6719 6.69441 30.5231 6.55902 30.3717ZM24.8848 19.7624C21.2686 20.2346 18.0742 21.7132 15.6156 24.0613C13.0535 26.5082 11.4899 29.7253 11.0743 33.3892C10.467 33.1787 9.8797 32.9145 9.31879 32.5977C9.71794 24.6334 16.1449 18.2919 24.1174 17.9993C24.4258 18.5634 24.6828 19.1529 24.8848 19.7624ZM24.5797 27.3936C23.6701 25.3975 22.368 23.5959 20.763 22.1088C21.5612 21.766 22.4021 21.4858 23.2802 21.2735C24.1073 22.3273 24.7925 23.4873 25.3212 24.7264C25.1892 25.65 24.9395 26.5449 24.5797 27.3936ZM25.3911 22.2377C25.1395 21.8178 24.8695 21.4093 24.5816 21.0136C24.7855 20.9812 24.9912 20.9528 25.1985 20.9275C25.2889 21.3574 25.3534 21.7947 25.3911 22.2377ZM19.2046 27.4225C20.2447 28.5679 21.1087 29.8688 21.765 31.2868C20.0347 32.8143 17.893 33.7345 15.6016 33.939C15.9365 31.2306 17.2524 28.8457 19.2046 27.4225ZM14.3947 33.9804C13.6618 33.9653 12.941 33.8781 12.2405 33.7213C12.5924 30.2564 14.0871 27.2433 16.3997 24.9998C17.0977 25.469 17.7523 25.9918 18.3586 26.5623C16.1746 28.2234 14.724 30.9352 14.3947 33.9804ZM22.6639 30.3973C21.4334 27.91 19.6003 25.7767 17.3205 24.1823C18.022 23.6126 18.7837 23.106 19.5989 22.6692C21.4935 24.3178 22.9675 26.427 23.8662 28.7838C23.5194 29.3531 23.1178 29.8932 22.6639 30.3973Z" fill="#1F1F1F"/>
</g>
<defs>
<clipPath id="clip0_218_1055">
<rect width="35.1787" height="35.1787" fill="white" transform="translate(0.660889)"/>
</clipPath>
</defs>
</svg>
