<svg width="33" height="33" viewBox="0 0 33 33" fill="none" xmlns="http://www.w3.org/2000/svg">
<g id="paw-2-svgrepo-com 2" clip-path="url(#clip0_218_1091)">
<g id="Group">
<path id="Vector" d="M7.83344 9.47275C8.11386 10.293 8.64269 10.9684 9.30321 11.4316C9.96399 11.8954 10.7589 12.1539 11.5847 12.1544C12.0117 12.1544 12.4457 12.0846 12.868 11.9403L12.8694 11.9398C13.6892 11.6594 14.3643 11.1308 14.8276 10.47C15.2914 9.8097 15.55 9.01482 15.5503 8.18873C15.5503 7.76206 15.4806 7.32703 15.3355 6.90377C15.0553 6.08449 14.5267 5.4091 13.8665 4.94535C13.2059 4.48159 12.4113 4.22266 11.585 4.22266C11.1585 4.22266 10.7235 4.29194 10.2993 4.43775C9.47974 4.71811 8.8046 5.24676 8.34184 5.9071C7.87783 6.56738 7.61914 7.3622 7.6189 8.18829C7.6189 8.61403 7.68837 9.04757 7.83251 9.46984L7.83344 9.47275ZM9.97594 7.05491C10.2081 6.72625 10.5358 6.46825 10.9473 6.32733L10.8613 6.35661L10.9486 6.32634C11.161 6.25365 11.3738 6.22002 11.585 6.22002C11.9914 6.21953 12.3889 6.34832 12.7178 6.57995C13.0467 6.81207 13.3045 7.1398 13.4459 7.55092V7.55136C13.5191 7.76447 13.5529 7.97809 13.5529 8.18873C13.5531 8.59546 13.4244 8.9929 13.1932 9.32205C12.9611 9.65126 12.6334 9.90871 12.2218 10.0501H12.2233C12.0092 10.1228 11.7951 10.1564 11.5847 10.1564C11.1777 10.1569 10.7803 10.0282 10.4513 9.79707C10.1232 9.56594 9.86585 9.2392 9.72425 8.82863L9.72326 8.82616C9.65007 8.61205 9.6162 8.39893 9.6162 8.18829C9.61608 7.78156 9.7448 7.38412 9.97594 7.05491Z" fill="#1F1F1F"/>
<path id="Vector_2" d="M7.83355 9.47364C7.83336 9.47264 7.83336 9.47164 7.8328 9.47063L7.8064 9.3938L7.83355 9.47364Z" fill="#1F1F1F"/>
<path id="Vector_3" d="M19.7744 11.7161L19.6393 11.6698L19.7754 11.7166C20.1984 11.8615 20.6327 11.9307 21.0589 11.9307C21.8852 11.9302 22.6799 11.6718 23.3406 11.208C24.0012 10.7448 24.5301 10.0693 24.8104 9.24962C24.9555 8.82587 25.025 8.39133 25.025 7.96467C25.0248 7.13857 24.7661 6.34369 24.3021 5.68298C23.8391 5.0227 23.1634 4.49356 22.3434 4.21363L22.3438 4.21407C21.9211 4.06875 21.4864 3.99854 21.0589 3.99854C20.2328 3.99903 19.4379 4.25797 18.7774 4.72172C18.1171 5.18498 17.5883 5.86037 17.3084 6.68064C17.1632 7.10347 17.0935 7.53843 17.0935 7.96516C17.0938 8.79125 17.3524 9.58614 17.8162 10.2464C18.2795 10.9066 18.9546 11.4357 19.7744 11.7161ZM19.1979 7.32767C19.3393 6.91561 19.597 6.58789 19.926 6.35576C20.2549 6.12457 20.6521 5.99584 21.0588 5.99584C21.2687 5.99584 21.4823 6.03002 21.6962 6.10308L21.6967 6.10358C22.1083 6.2445 22.4357 6.50201 22.6679 6.83116C22.8991 7.16031 23.0278 7.55775 23.0275 7.96448C23.0275 8.17518 22.9936 8.38873 22.9207 8.60235C22.7793 9.01347 22.5214 9.34114 22.1924 9.57332C21.8635 9.80452 21.4657 9.93318 21.0588 9.93318C20.8481 9.93318 20.6343 9.899 20.421 9.82638L20.5561 9.87269L20.422 9.82687C20.0104 9.68496 19.6827 9.42701 19.4505 9.0983C19.2194 8.76909 19.0907 8.37164 19.0909 7.96498C19.0909 7.7544 19.1248 7.54079 19.1979 7.32767Z" fill="#1F1F1F"/>
<path id="Vector_4" d="M31.3747 13.397C30.9117 12.7367 30.236 12.2077 29.416 11.9277H29.4165C28.9937 11.7829 28.559 11.7126 28.1316 11.7131C27.3055 11.7131 26.5106 11.9716 25.8501 12.4358C25.1898 12.8991 24.661 13.575 24.381 14.3947C24.236 14.8176 24.1663 15.2525 24.1663 15.6798C24.1664 16.5054 24.4252 17.3002 24.889 17.9605C25.3523 18.6213 26.0274 19.1499 26.8471 19.4303L26.8481 19.4308C27.2711 19.5752 27.7054 19.6449 28.1316 19.6449C28.958 19.6444 29.7526 19.386 30.4134 18.9222C31.0739 18.4589 31.6028 17.7835 31.8832 16.9632C32.0282 16.54 32.0978 16.1054 32.0978 15.6787C32.0974 14.8527 31.8387 14.0578 31.3747 13.397ZM29.9934 16.3166C29.852 16.7277 29.5941 17.0554 29.2651 17.2876C28.9362 17.5187 28.5384 17.6474 28.1315 17.6469C27.9208 17.6469 27.707 17.6133 27.4937 17.5406H27.4946C27.0831 17.3992 26.7554 17.1412 26.5232 16.8121C26.2921 16.4834 26.1634 16.086 26.1636 15.6798C26.1636 15.4691 26.1975 15.2555 26.2706 15.0419C26.412 14.6298 26.6697 14.3021 26.9987 14.07C27.3276 13.8389 27.7248 13.7101 28.1315 13.7106C28.3414 13.7106 28.555 13.7443 28.7688 13.8174L28.7693 13.8179C29.1809 13.9589 29.5084 14.2168 29.7405 14.5455C29.9716 14.8742 30.1003 15.2722 30.1002 15.6788C30.1002 15.8894 30.0663 16.103 29.9934 16.3166Z" fill="#1F1F1F"/>
<path id="Vector_5" d="M8.1134 16.9633C8.25847 16.54 8.328 16.1055 8.328 15.6788C8.32776 14.8527 8.06901 14.0578 7.605 13.397C7.14199 12.7367 6.46636 12.2077 5.64633 11.9277L5.64485 11.9272C5.22282 11.7829 4.78854 11.7126 4.36181 11.7131C3.53572 11.7131 2.74083 11.9716 2.08031 12.4358C1.42009 12.8991 0.891198 13.575 0.611273 14.3948V14.3944C0.466202 14.8176 0.396484 15.2526 0.396484 15.6798C0.396732 16.5054 0.65542 17.3003 1.11918 17.9606C1.5825 18.6214 2.25764 19.1499 3.07735 19.4304L3.07834 19.4309C3.50136 19.5752 3.93564 19.645 4.36187 19.645C5.18821 19.6445 5.98285 19.386 6.64362 18.9222C7.30415 18.459 7.83304 17.7836 8.1134 16.9633ZM6.2237 16.3167C6.08229 16.7278 5.82428 17.0555 5.49538 17.2876C5.16648 17.5187 4.76879 17.6475 4.36181 17.647C4.15117 17.647 3.93731 17.6134 3.72395 17.5407H3.72494C3.31338 17.3992 2.98565 17.1413 2.75353 16.8122C2.52233 16.4835 2.3936 16.0861 2.39391 15.6798C2.39391 15.4686 2.42778 15.2556 2.50091 15.042L2.50165 15.04C2.64331 14.6289 2.90052 14.3017 3.22892 14.07C3.55788 13.8389 3.95508 13.7101 4.36175 13.7106C4.57171 13.7106 4.78526 13.7443 4.99912 13.8174L5.18809 13.8823L4.99961 13.8179C5.41117 13.9589 5.73865 14.2168 5.97084 14.5455C6.20191 14.8742 6.3307 15.2722 6.33045 15.6788C6.33051 15.8895 6.29664 16.1031 6.2237 16.3167Z" fill="#1F1F1F"/>
<path id="Vector_6" d="M21.3538 15.3675C20.5911 14.7589 19.765 14.2547 18.8965 13.8968C18.0284 13.5397 17.1149 13.3291 16.1883 13.3291C14.9521 13.3301 13.7425 13.7017 12.6265 14.3019C10.9523 15.2055 9.46719 16.6256 8.37071 18.2759C7.27937 19.9266 6.56683 21.8163 6.5625 23.7094C6.5625 24.3969 6.65959 25.0835 6.87456 25.7463C7.10155 26.4471 7.40611 27.0454 7.78312 27.5419C8.34638 28.289 9.07662 28.7873 9.83393 29.0673C10.593 29.3496 11.3713 29.4335 12.1164 29.4339C12.9362 29.4335 13.7247 29.3315 14.4299 29.2374C15.1326 29.1418 15.7585 29.0569 16.1884 29.059C16.6179 29.057 17.2441 29.1419 17.9466 29.2374C18.652 29.3315 19.4405 29.4334 20.2603 29.4339C21.2502 29.433 22.3141 29.2852 23.286 28.7136C23.769 28.4289 24.2177 28.0383 24.5936 27.5419C24.9706 27.0454 25.2751 26.4471 25.5022 25.7468C25.7172 25.0836 25.8142 24.397 25.8142 23.7094C25.8132 22.4478 25.4916 21.1863 24.9589 19.9974C24.156 18.2149 22.8775 16.5857 21.3538 15.3675ZM23.6021 25.1304C23.4329 25.6522 23.2257 26.0399 23.0023 26.3344C22.6651 26.7738 22.2952 27.024 21.8433 27.1961C21.393 27.3653 20.8529 27.4371 20.2602 27.4366C19.6094 27.4371 18.9043 27.3512 18.2122 27.2581C17.5178 27.1659 16.8431 27.0636 16.1882 27.0616C15.5334 27.0635 14.8586 27.1659 14.1643 27.2576C13.4723 27.3512 12.7671 27.4371 12.1163 27.4366C11.3226 27.4375 10.6367 27.3093 10.1067 26.9937C9.83869 26.8343 9.59852 26.6285 9.3742 26.3344C9.15086 26.0399 8.94363 25.6522 8.77435 25.1304C8.62996 24.6847 8.55974 24.2097 8.55974 23.7094C8.55882 22.7936 8.79992 21.7943 9.24002 20.8156C9.89665 19.3473 11.0007 17.9374 12.2681 16.9289C12.9011 16.4238 13.5728 16.018 14.2399 15.744C14.9075 15.4689 15.5673 15.326 16.1881 15.3265C17.015 15.3255 17.9152 15.5821 18.8034 16.0609C20.1357 16.7748 21.4199 17.9862 22.3411 19.3794C23.2674 20.7712 23.8208 22.3365 23.8165 23.7093C23.8167 24.2097 23.7465 24.6847 23.6021 25.1304Z" fill="#1F1F1F"/>
</g>
</g>
<defs>
<clipPath id="clip0_218_1091">
<rect width="31.7013" height="31.7013" fill="white" transform="translate(0.396484 0.865723)"/>
</clipPath>
</defs>
</svg>
