<svg width="32" height="31" viewBox="0 0 32 31" fill="none" xmlns="http://www.w3.org/2000/svg">
<g id="pet-house-kennel-svgrepo-com 2" clip-path="url(#clip0_224_2691)">
<g id="Group">
<path id="Vector" d="M20.4098 30.5692H7.56289C5.86212 30.5692 4.47852 29.1856 4.47852 27.4848V13.4508C4.47852 12.4102 5.00046 11.4522 5.8749 10.8881L13.8155 5.76503C15.293 4.81172 17.2025 4.81172 18.6799 5.76503L26.6205 10.8881C27.4949 11.4522 28.0169 12.4102 28.0169 13.4508V28.7588C28.0169 29.2459 27.6219 29.6408 27.1349 29.6408C26.6479 29.6408 26.2529 29.246 26.2529 28.7588V13.4508C26.2529 13.0121 26.0329 12.6081 25.6641 12.3703L17.7235 7.24722C16.8267 6.66873 15.6682 6.66873 14.7716 7.24722L6.83114 12.3703C6.46246 12.6082 6.24245 13.0121 6.24245 13.4508V27.4849C6.24245 28.2131 6.83478 28.8053 7.56289 28.8053H20.4098C20.8968 28.8053 21.2918 29.2002 21.2918 29.6873C21.2918 30.1744 20.8969 30.5692 20.4098 30.5692Z" fill="#1F1F1F"/>
<path id="Vector_2" d="M30.0345 10.3281C29.8647 10.3281 29.6932 10.2792 29.5419 10.1771L17.7702 2.23368C16.8453 1.60946 15.6498 1.60946 14.7246 2.23368L2.95302 10.1771C2.54917 10.4497 2.00114 10.3431 1.72859 9.93941C1.45615 9.53568 1.56261 8.98741 1.96633 8.71497L13.738 0.771496C15.2624 -0.257225 17.2325 -0.257106 18.7569 0.771496L30.5286 8.71491C30.9323 8.98735 31.0388 9.53556 30.7663 9.93935C30.5959 10.1918 30.3177 10.3281 30.0345 10.3281Z" fill="#1F1F1F"/>
</g>
<path id="Vector_3" d="M22.1915 17.6469C23.2276 16.3166 22.3033 13.8638 22.3033 13.8638C22.3033 13.8638 19.7392 13.5732 18.6874 14.8689C17.9372 14.5912 17.1129 14.4376 16.2477 14.4376C15.3824 14.4376 14.558 14.5912 13.808 14.8689C12.7561 13.5732 10.1921 13.8638 10.1921 13.8638C10.1921 13.8638 9.26774 16.3166 10.3039 17.6469C10.3505 17.7066 10.4011 17.762 10.4536 17.8153C10.1379 18.4734 9.96312 19.4716 9.96312 20.2305C9.96312 23.2779 12.7768 24.7401 16.2477 24.7401C19.7186 24.7401 22.5323 23.2779 22.5323 20.2305C22.5323 19.4714 22.3576 18.4734 22.0418 17.8153C22.0943 17.762 22.1449 17.7067 22.1915 17.6469Z" fill="white"/>
<g id="Group_2">
<path id="Vector_4" d="M16.2474 25.6227C11.894 25.6227 9.0809 23.5063 9.0809 20.231C9.0809 19.6339 9.18067 18.7474 9.44654 17.9597C8.3882 16.284 9.25912 13.8384 9.36653 13.5534C9.4832 13.2436 9.76357 13.0253 10.0925 12.988C10.1228 12.9846 10.3996 12.9546 10.8084 12.9546C11.8089 12.9546 13.1109 13.1248 14.0391 13.8655C14.7496 13.6601 15.4901 13.5562 16.2474 13.5562C17.0047 13.5562 17.7451 13.6601 18.4558 13.8655C19.3838 13.1249 20.6859 12.9546 21.6865 12.9546C22.0952 12.9546 22.3722 12.9847 22.4024 12.988C22.7312 13.0253 23.0116 13.2436 23.1283 13.5534C23.2359 13.8384 24.1064 16.2839 23.0483 17.9597C23.3143 18.7476 23.414 19.634 23.414 20.2311C23.4139 23.5063 20.6009 25.6227 16.2474 25.6227ZM10.8561 14.7185C10.6821 15.4371 10.5498 16.5283 10.9994 17.1054C11.0192 17.1308 11.0462 17.1608 11.082 17.1972C11.3427 17.4622 11.4092 17.8621 11.2485 18.1973C11.0146 18.6849 10.8448 19.5401 10.8448 20.2311C10.8448 21.368 11.3302 22.2631 12.2875 22.8915C13.2379 23.5153 14.6443 23.8589 16.2474 23.8589C17.8505 23.8589 19.2568 23.5153 20.2072 22.8915C21.1645 22.2631 21.6499 21.3681 21.6499 20.2311C21.6499 19.5403 21.4801 18.685 21.2463 18.1972C21.0856 17.8623 21.1522 17.4625 21.4125 17.1975C21.4489 17.1606 21.4753 17.1311 21.4957 17.1049C21.9448 16.5285 21.8127 15.438 21.6385 14.7186C20.5558 14.726 19.7311 14.9826 19.3717 15.4254C19.1336 15.7187 18.7348 15.8277 18.3809 15.6967C17.706 15.4468 16.9882 15.3202 16.2474 15.3202C15.5066 15.3202 14.7887 15.4469 14.1138 15.6967C13.7595 15.828 13.3609 15.7187 13.1228 15.4254C12.7635 14.9826 11.9389 14.7259 10.8561 14.7185Z" fill="#1F1F1F"/>
<path id="Vector_5" d="M13.6725 19.8875H13.5514C13.0643 19.8875 12.6694 19.4926 12.6694 19.0055C12.6694 18.5184 13.0643 18.1235 13.5514 18.1235H13.6725C14.1596 18.1235 14.5544 18.5184 14.5544 19.0055C14.5544 19.4926 14.1596 19.8875 13.6725 19.8875Z" fill="#1F1F1F"/>
<path id="Vector_6" d="M18.9436 19.8875H18.8224C18.3354 19.8875 17.9404 19.4926 17.9404 19.0055C17.9404 18.5184 18.3354 18.1235 18.8224 18.1235H18.9436C19.4306 18.1235 19.8256 18.5184 19.8256 19.0055C19.8255 19.4926 19.4307 19.8875 18.9436 19.8875Z" fill="#1F1F1F"/>
</g>
</g>
<defs>
<clipPath id="clip0_224_2691">
<rect width="30.5691" height="30.5691" fill="white" transform="translate(0.962891)"/>
</clipPath>
</defs>
</svg>
