<svg width="27" height="27" viewBox="0 0 27 27" fill="none" xmlns="http://www.w3.org/2000/svg">
<g id="pet-shop-svgrepo-com 1">
<path id="Vector" d="M2.76587 3.02994L2.96264 6.81762L4.92362 9.57074L9.04196 4.45536L6.06297 3.02994H2.76587ZM23.4698 2.50024L23.707 6.28565L22.0734 9.24462L17.3977 4.63317L20.1943 2.87696L23.4698 2.50024Z" fill="#FFD3BB"/>
<path id="Vector_2" d="M22.1974 19.2064V21.8627C22.1974 23.0246 21.2555 23.9673 20.0928 23.9673H6.52821C5.3663 23.9673 4.42358 23.0246 4.42358 21.8627V19.0188C4.42358 20.1815 5.3663 21.1234 6.52821 21.1234H20.0928C21.2555 21.1234 22.1974 20.1815 22.1974 19.0188V19.2064Z" fill="#FF4893"/>
<path id="Vector_3" d="M16.6145 4.68318C17.7308 5.13105 18.7445 5.80081 19.5943 6.65191C21.203 8.26061 22.1974 10.4819 22.1974 12.9357V19.0187C22.1974 20.1814 21.2555 21.1233 20.0928 21.1233H6.52821C5.3663 21.1233 4.42358 20.1814 4.42358 19.0187V12.9357C4.42358 8.02807 8.40282 4.04883 13.3105 4.04883C14.4783 4.04883 15.5935 4.27389 16.6145 4.68318ZM18.8009 9.10828C18.801 9.02855 18.7854 8.94958 18.7549 8.87591C18.7245 8.80223 18.6797 8.73531 18.6233 8.67897C18.5672 8.62248 18.5005 8.5777 18.4269 8.54722C18.3534 8.51674 18.2745 8.50118 18.1949 8.50143C18.1152 8.50128 18.0362 8.51689 17.9626 8.54736C17.8889 8.57783 17.822 8.62256 17.7656 8.67897C17.7092 8.73529 17.6645 8.80222 17.634 8.87589C17.6035 8.94957 17.5879 9.02855 17.5881 9.10828C17.5881 9.27581 17.6556 9.42666 17.7656 9.53665C17.8796 9.6503 18.034 9.71414 18.1949 9.7142C18.3556 9.7142 18.5098 9.65036 18.6234 9.53673C18.737 9.42309 18.8009 9.26898 18.8009 9.10828ZM9.32298 9.10828C9.32313 9.02855 9.30752 8.94958 9.27705 8.87591C9.24658 8.80223 9.20185 8.73531 9.14544 8.67897C9.03544 8.56897 8.88366 8.50143 8.71613 8.50143C8.5486 8.50143 8.39695 8.56897 8.28775 8.67897C8.23132 8.73529 8.18658 8.80222 8.15611 8.87589C8.12564 8.94957 8.11004 9.02855 8.11021 9.10828C8.11021 9.27581 8.17776 9.42666 8.28775 9.53665C8.37257 9.62136 8.48058 9.67903 8.59814 9.7024C8.71571 9.72577 8.83757 9.71378 8.94833 9.66795C9.05908 9.62211 9.15378 9.5445 9.22046 9.44489C9.28714 9.34528 9.32282 9.22815 9.32298 9.10828Z" fill="#DD9644"/>
<path id="Vector_4" d="M18.6232 8.67901C18.6796 8.73533 18.7244 8.80226 18.7549 8.87593C18.7853 8.94961 18.8009 9.02859 18.8008 9.10832C18.8008 9.18789 18.7851 9.26668 18.7546 9.34019C18.7242 9.41371 18.6795 9.4805 18.6233 9.53677C18.567 9.59303 18.5002 9.63766 18.4267 9.66811C18.3532 9.69856 18.2744 9.71424 18.1948 9.71424C18.0339 9.71417 17.8795 9.65033 17.7655 9.53669C17.7091 9.48054 17.6644 9.41378 17.6339 9.34026C17.6034 9.26674 17.5878 9.18791 17.588 9.10832C17.588 8.94079 17.6555 8.78914 17.7655 8.67901C17.8218 8.62258 17.8888 8.57784 17.9625 8.54737C18.0361 8.5169 18.1151 8.5013 18.1948 8.50147C18.3624 8.50147 18.514 8.56901 18.6232 8.67901ZM9.14533 8.67901C9.25378 8.79381 9.31319 8.94637 9.31095 9.10428C9.3087 9.26219 9.24497 9.41299 9.1333 9.52466C9.02164 9.63633 8.87083 9.70006 8.71292 9.7023C8.55501 9.70455 8.40245 9.64514 8.28765 9.53669C8.23125 9.48054 8.18652 9.41378 8.15604 9.34026C8.12557 9.26674 8.10996 9.18791 8.11011 9.10832C8.11011 8.94079 8.17766 8.78914 8.28765 8.67901C8.34375 8.62253 8.4105 8.57776 8.48403 8.54728C8.55757 8.5168 8.63642 8.50123 8.71603 8.50147C8.79575 8.5013 8.87473 8.5169 8.94841 8.54737C9.02209 8.57784 9.08901 8.62258 9.14533 8.67901Z" fill="#8B87C1"/>
<path id="Vector_5" d="M8.71627 10.2975C8.56 10.2979 8.40521 10.2673 8.26086 10.2074C8.1165 10.1476 7.98544 10.0598 7.87527 9.94894C7.76448 9.83875 7.67665 9.70769 7.61684 9.56333C7.55704 9.41898 7.52645 9.2642 7.52686 9.10794C7.52686 8.78983 7.65061 8.49068 7.87527 8.26615C7.98531 8.15516 8.11635 8.06719 8.26074 8.00738C8.40512 7.94756 8.55998 7.91708 8.71627 7.91773C8.87263 7.91729 9.02754 7.94784 9.17203 8.00762C9.31651 8.06739 9.44772 8.15522 9.55806 8.26601C9.66893 8.37634 9.75682 8.50756 9.81665 8.65207C9.87648 8.79659 9.90705 8.95153 9.90661 9.10794C9.90647 9.76392 9.37251 10.2975 8.71627 10.2975Z" fill="#63261D"/>
<path id="Vector_6" d="M8.71627 9.08555C8.71173 9.08555 8.7064 9.08609 8.70199 9.09063C8.69465 9.09797 8.69385 9.10357 8.69385 9.10891C8.69385 9.11372 8.69438 9.11853 8.70039 9.12467C8.70241 9.12686 8.70486 9.1286 8.7076 9.12977C8.71034 9.13095 8.7133 9.13153 8.71627 9.13147C8.72234 9.13151 8.72819 9.12917 8.73255 9.12495C8.73692 9.12074 8.73946 9.11498 8.73964 9.10891C8.73978 9.10579 8.73924 9.10266 8.73807 9.09976C8.73689 9.09686 8.73511 9.09424 8.73283 9.09209C8.73069 9.08989 8.72811 9.08817 8.72525 9.08704C8.7224 9.08591 8.71934 9.08541 8.71627 9.08555ZM18.195 10.2983C18.039 10.2986 17.8845 10.2681 17.7403 10.2086C17.5961 10.1491 17.465 10.0617 17.3546 9.95151C17.2434 9.84124 17.1552 9.70997 17.0951 9.56532C17.035 9.42068 17.0043 9.26554 17.0046 9.10891C17.0046 8.7908 17.1284 8.49165 17.353 8.26712C17.4634 8.15628 17.5946 8.06842 17.7391 8.00861C17.8836 7.94881 18.0386 7.91825 18.195 7.91871C18.5141 7.91871 18.8133 8.04299 19.0373 8.26859C19.1478 8.3788 19.2353 8.50983 19.2949 8.65409C19.3544 8.79835 19.3848 8.95298 19.3842 9.10905C19.3844 9.76476 18.8508 10.2983 18.195 10.2983Z" fill="#63261D"/>
<path id="Vector_7" d="M18.1941 9.08524C18.1911 9.08507 18.188 9.08558 18.1852 9.08672C18.1824 9.08786 18.1799 9.08962 18.1778 9.09185C18.1756 9.09392 18.1739 9.09645 18.1728 9.09925C18.1717 9.10205 18.1712 9.10506 18.1714 9.10807C18.1714 9.11274 18.1719 9.11741 18.1778 9.12338C18.1844 9.12999 18.1914 9.12999 18.1941 9.12999C18.1999 9.12999 18.2055 9.12768 18.2096 9.12357C18.2137 9.11946 18.2161 9.11388 18.2161 9.10807C18.2162 9.10504 18.2157 9.10202 18.2146 9.0992C18.2134 9.09639 18.2117 9.09384 18.2096 9.09172C18.2076 9.08957 18.2053 9.08787 18.2026 9.08675C18.1999 9.08562 18.197 9.08511 18.1941 9.08524Z" fill="#4F46A3"/>
<path id="Vector_8" d="M15.3141 14.176V15.8714C15.3141 16.8565 14.5131 17.6575 13.5279 17.6575C13.05 17.6575 12.6029 17.4719 12.2651 17.1342C12.0991 16.9686 11.9674 16.7717 11.8779 16.555C11.7883 16.3382 11.7425 16.1059 11.7432 15.8714V14.1013C12.1984 13.8583 12.6055 13.6901 12.9446 13.3057V16.0556C12.9446 16.3773 13.2062 16.6389 13.5279 16.6389C13.8497 16.6389 14.1113 16.3773 14.1113 16.0556V13.3057C14.457 13.6608 14.8629 13.9571 15.3141 14.176Z" fill="#FF4893"/>
<path id="Vector_9" d="M17.1683 13.4341C17.49 13.4341 17.7517 13.6958 17.7517 14.0175C17.7517 14.3406 17.49 14.6009 17.1683 14.6009C16.9347 14.6009 16.7051 14.5822 16.4808 14.5448V15.8717C16.4808 17.5003 15.1566 18.8245 13.528 18.8245C12.7391 18.8245 11.9968 18.5175 11.4402 17.9595C10.8822 17.4015 10.5752 16.6606 10.5752 15.8717V14.5194C10.3068 14.5728 10.0278 14.6009 9.74351 14.6009C9.42046 14.6009 9.16016 14.3406 9.16016 14.0175C9.16016 13.6958 9.42046 13.4341 9.74351 13.4341C11.4495 13.4341 12.8392 12.0458 12.8392 10.3385C12.839 10.2619 12.8539 10.1861 12.8831 10.1153C12.9123 10.0446 12.9551 9.98026 13.0092 9.92607C13.0632 9.87188 13.1275 9.82889 13.1982 9.79956C13.2689 9.77023 13.3447 9.75513 13.4212 9.75513C13.4345 9.75513 13.4452 9.7578 13.4586 9.7578C13.4679 9.7578 13.4786 9.75513 13.4893 9.75513C13.811 9.75513 14.0726 10.0168 14.0726 10.3385C14.0726 12.0458 15.4609 13.4341 17.1683 13.4341ZM15.3141 15.8717V14.1764C14.8658 13.9582 14.4588 13.6636 14.1113 13.306V16.0559C14.1113 16.3776 13.8497 16.6393 13.528 16.6393C13.2063 16.6393 12.9446 16.3776 12.9446 16.0559V13.306C12.6056 13.6904 12.1984 13.8586 11.7432 14.1016V15.8717C11.7432 16.3496 11.9288 16.7968 12.2652 17.1345C12.6029 17.4723 13.0501 17.6578 13.528 17.6578C14.5132 17.6578 15.3141 16.8569 15.3141 15.8717Z" fill="#63261D"/>
<path id="Vector_10" d="M24.156 2.78238C24.1624 2.64693 24.1213 2.51351 24.0399 2.40507C23.9585 2.29662 23.8419 2.21994 23.71 2.18821C21.1151 1.54705 18.4415 2.22732 16.478 4.0097C15.4611 3.64839 14.3897 3.46434 13.3105 3.46559C12.1536 3.46455 11.0064 3.67665 9.92626 4.09126C7.91175 2.35734 5.21162 1.74969 2.62843 2.46841C2.61909 2.47108 2.61095 2.47575 2.60187 2.47882C2.49283 2.51508 2.3969 2.58269 2.32608 2.67318C2.27866 2.73439 2.24386 2.8044 2.22369 2.87916C2.22102 2.88877 2.21661 2.89758 2.21448 2.90746C1.64661 5.53417 2.41485 8.19945 4.27104 10.1094C3.98461 11.0243 3.83926 11.9775 3.84 12.9361V21.8629C3.84 23.3451 5.04583 24.5511 6.52811 24.5511H20.0927C21.575 24.5511 22.7808 23.3451 22.7808 21.8629V12.9361C22.7812 11.9208 22.6186 10.9121 22.2992 9.94832C24.0735 8.00669 24.7642 5.36103 24.156 2.78238ZM23.0601 3.24212C23.4632 5.19523 23.0013 7.17811 21.799 8.73208C21.341 7.8095 20.7358 6.96771 20.0071 6.2398C19.3219 5.55251 18.5346 4.9752 17.6732 4.52831C19.1998 3.34571 21.141 2.87702 23.0601 3.24212ZM3.28895 3.50777C5.20869 3.07833 7.17594 3.49215 8.74433 4.64151C7.00047 5.60673 5.60286 7.09407 4.74787 8.89454C3.5044 7.3957 2.97244 5.45287 3.28895 3.50777ZM21.614 21.8629C21.614 22.7017 20.9315 23.3841 20.0928 23.3841H6.52811C5.68939 23.3841 5.00698 22.7017 5.00698 21.8629V21.2329C5.45398 21.542 5.98464 21.7074 6.52811 21.707H20.0927C20.6362 21.7074 21.1668 21.542 21.6138 21.2329V21.8629H21.614ZM21.614 17.8645V19.0188C21.614 19.8575 20.9315 20.5399 20.0928 20.5399H6.52811C5.68939 20.5399 5.00698 19.8575 5.00698 19.0188V18.2412V12.936C5.00698 8.35737 8.73192 4.63257 13.3104 4.63257C14.354 4.63096 15.3885 4.82709 16.3591 5.21058C16.3804 5.22073 16.4023 5.22914 16.4249 5.23675C17.4577 5.65386 18.3955 6.27563 19.1817 7.06464C20.7503 8.63303 21.614 10.7182 21.614 12.9359V17.8645Z" fill="#63261D"/>
</g>
</svg>
