<svg width="34" height="34" viewBox="0 0 34 34" fill="none" xmlns="http://www.w3.org/2000/svg">
<g id="message-circle-chat-svgrepo-com 1">
<path id="Vector" d="M27.4838 25.5C28.0269 24.4374 28.3333 23.2336 28.3333 21.9583C28.3333 17.6551 24.8449 14.1667 20.5417 14.1667C16.2384 14.1667 12.75 17.6551 12.75 21.9583C12.75 26.2616 16.2384 29.75 20.5417 29.75H29.75C29.75 29.75 28.3333 28.3333 27.5036 25.5414M26.7042 17C26.8436 16.3133 26.9167 15.6027 26.9167 14.875C26.9167 9.00697 22.1596 4.25 16.2917 4.25C10.4236 4.25 5.66667 9.00697 5.66667 14.875C5.66667 16.1169 5.87972 17.309 6.27124 18.4167C7.79306 22.6832 4.25 25.5 4.25 25.5H13.4583" stroke="#1F1F1F" stroke-width="1.97674" stroke-linecap="round" stroke-linejoin="round"/>
</g>
</svg>
