<svg width="35" height="35" viewBox="0 0 35 35" fill="none" xmlns="http://www.w3.org/2000/svg">
<g id="bone-broken-svgrepo-com 2">
<path id="Vector" d="M20.8502 3.88577C19.7953 4.94064 19.2489 6.77926 19.6467 8.21736C19.8575 8.97857 19.8918 9.90024 19.3333 10.4587L17.5173 12.2747C17.4186 12.3736 17.4508 12.5411 17.5794 12.5962C19.6791 13.4961 21.3522 15.1691 22.252 17.2688C22.3071 17.3974 22.4746 17.4296 22.5735 17.3308L24.3895 15.5149C24.948 14.9564 25.8697 14.9907 26.6308 15.2015C28.0689 15.5993 29.9076 15.0529 30.9624 13.998C32.3586 12.6018 32.3586 10.3381 30.9624 8.94188C29.5662 7.54569 27.3025 7.54569 25.9063 8.94188C27.3025 7.54569 27.3025 5.28198 25.9063 3.88577C24.5101 2.48957 22.2465 2.48957 20.8502 3.88577Z" stroke="#1F1F1F" stroke-width="2.12896" stroke-linecap="round" stroke-linejoin="round"/>
<path id="Vector_2" d="M4.67019 25.1214C6.06641 26.5175 8.33011 26.5175 9.72631 25.1214C8.33011 26.5175 8.3301 28.7813 9.72631 30.1775C11.1225 31.5737 13.3862 31.5737 14.7824 30.1775C15.8373 29.1227 16.3837 27.284 15.9859 25.8459C15.7751 25.0848 15.7408 24.1631 16.2993 23.6046L18.1153 21.7886C18.2141 21.6896 18.1818 21.5222 18.0532 21.4671C15.9535 20.5673 14.2805 18.8942 13.3806 16.7945C13.3255 16.6659 13.158 16.6337 13.0591 16.7324L11.2431 18.5484C10.6847 19.1069 9.763 19.0726 9.00178 18.8618C7.56369 18.464 5.72505 19.0104 4.67019 20.0652C3.274 21.4616 3.274 23.7252 4.67019 25.1214Z" stroke="#1F1F1F" stroke-width="2.12896" stroke-linecap="round" stroke-linejoin="round"/>
<path id="Vector_3" d="M25.8457 25.0603L27.8529 27.0676" stroke="#1F1F1F" stroke-width="2.12896" stroke-linecap="round"/>
<path id="Vector_4" d="M9.78747 9.00329L7.78027 6.99609" stroke="#1F1F1F" stroke-width="2.12896" stroke-linecap="round"/>
<path id="Vector_5" d="M22.0742 26.9668V28.3861" stroke="#1F1F1F" stroke-width="2.12896" stroke-linecap="round"/>
<path id="Vector_6" d="M7.88122 12.7737H6.46191" stroke="#1F1F1F" stroke-width="2.12896" stroke-linecap="round"/>
<path id="Vector_7" d="M27.7515 21.2896H29.1708" stroke="#1F1F1F" stroke-width="2.12896" stroke-linecap="round"/>
<path id="Vector_8" d="M13.5586 7.09655V5.67725" stroke="#1F1F1F" stroke-width="2.12896" stroke-linecap="round"/>
</g>
</svg>
