<svg width="48" height="48" viewBox="0 0 48 48" fill="none" xmlns="http://www.w3.org/2000/svg">
<g id="cat-food-svgrepo-com 3">
<path id="Vector" d="M10.2062 28.8356C10.2062 28.8356 11.0459 27.8012 11.226 27.2489C11.3501 26.8685 11.264 26.5543 11.2027 26.2334M11.2027 26.2334C11.1534 25.9753 11.097 25.5862 11.2027 25.2817C11.3864 24.7528 11.4716 24.5089 11.9617 24.2024C12.6159 23.7932 13.3115 24.4879 14.0349 24.2024C14.8903 23.8649 15.6622 23.0882 15.4394 22.2349C15.2654 21.5683 14.5594 21.854 14.4377 21.0685C14.3306 20.3774 14.8458 19.8658 15.5731 19.7596C16.4426 19.6327 17.3333 20.5637 18.3152 20.3308C19.1177 20.1404 17.5981 18.8548 17.9807 17.6651C18.3737 16.4435 18.6515 15.8245 19.8535 15.8245C20.5658 15.8245 20.6798 15.907 21.1241 15.761C22.0844 15.4456 21.3269 14.0821 22.1882 13.5703C22.7744 13.222 23.2049 13.2206 23.8661 13.4128C24.7052 13.6566 25.3487 14.2371 25.3487 15.0698C25.3487 15.8554 24.5132 16.4369 25.0031 16.967C25.2188 17.2004 25.5565 17.4689 25.8754 17.5382C26.6618 17.7089 26.5003 16.4756 27.277 16.2688C27.7567 16.1411 28.21 16.6121 28.6145 16.967C28.9537 17.2643 29.0408 17.684 29.0761 18.1094C29.1368 18.8414 29.0441 19.5901 29.8184 19.7596M11.2027 26.2334C11.2027 26.2334 8.4171 27.2489 8.14958 27.5029M29.8184 19.7596C30.1492 19.832 30.5524 19.8052 30.8884 19.7596C31.0442 19.7384 31.1693 19.6928 31.2764 19.6327C31.6859 19.4027 31.8323 18.9613 32.4266 18.8711C32.9431 18.7927 33.3173 18.5891 33.7013 18.9262C33.9505 19.1449 34.3033 19.4974 34.0775 20.0688C33.8323 20.6892 33.3835 21.005 33.2498 21.6397C33.1253 22.2302 32.8633 22.9154 33.325 23.3536C33.7867 23.7917 34.3232 23.3188 34.8343 22.9331C35.5072 22.4252 34.6216 21.9823 35.035 21.4099C35.2814 21.0685 35.6578 21.2113 35.9587 21.2827C36.6605 21.4492 37.175 22.3618 38.1113 23.4409C38.377 23.7469 38.2472 24.1127 38.1409 24.4963C37.9388 25.2253 36.586 25.195 36.7864 25.9244C36.9866 26.6527 37.8533 26.2334 38.6464 26.2334C39.2696 26.2334 39.9841 26.5375 39.9841 27.0586M29.8184 19.7596C29.8184 19.7596 30.9572 18.545 31.4999 17.3551C31.5835 17.1719 31.6579 16.9499 31.7236 16.7123M39.9841 27.0586C39.9841 27.4393 39.449 28.8322 39.449 28.8322M39.9841 27.0586C39.9841 27.0586 42.7261 27.6932 42.9266 27.8201M31.7236 16.7123C31.8559 16.2338 31.9523 15.6931 32.0144 15.2842M31.7236 16.7123C31.2844 16.7963 30.1658 16.7945 29.8184 16.7123M31.7236 16.7123C32.1175 17.1326 32.2735 17.3966 32.4266 17.9264M42.9266 27.8201C43.1134 27.9383 44.7482 32.9488 44.9741 33.6433C44.9906 33.694 44.98 33.7453 44.9438 33.7846C39.5671 39.619 16.1459 41.1785 5.90055 34.3556C5.84523 34.3187 5.8214 34.2544 5.84156 34.1911C6.10691 33.3574 7.90194 27.7378 8.14958 27.5029M42.9266 27.8201C39.4366 28.9471 37.3406 29.3735 33.4967 29.9782M8.14958 27.5029C8.14958 27.5029 9.42029 28.8649 12.6974 29.7242C17.7802 31.0571 24.6019 30.7397 24.6019 30.7397M16.5094 27.6298C16.5094 27.6298 16.4426 26.9315 17.5795 26.2334C18.0208 25.9625 16.8619 25.5776 16.9777 25.091C17.0594 24.7474 17.2475 24.5504 17.5795 24.3928C17.9807 24.2024 19.3852 24.4564 19.8535 24.2024C20.3339 23.9419 20.3405 23.458 20.3216 22.9331C20.3044 22.4546 19.9198 22.252 20.054 21.7906C20.2636 21.0703 21.8597 21.6002 21.8597 21.6002M22.5955 18.4268C22.5955 18.4268 23.4187 17.9948 23.398 17.5382C23.3866 17.2873 22.8992 17.4271 22.5955 17.3477C22.1587 17.2339 21.8597 16.967 21.8597 16.967M26.9426 20.3308C26.9426 20.3308 25.9321 19.5241 25.2037 19.6327C24.6811 19.7107 24.6809 20.0691 24.3343 20.5213C24.0164 20.9359 23.71 21.4396 24.1337 21.6637C24.6887 21.9572 24.9484 21.1217 25.5382 21.3463C25.9838 21.5161 26.3407 21.7271 26.3407 22.2983C26.3407 22.6949 25.9378 22.9471 26.2069 23.2504C26.5265 23.6107 27.1258 22.9183 27.4777 23.2504C27.8485 23.6005 27.4108 24.5198 27.4108 24.5198M22.9967 26.4238C22.9967 26.4238 23.3156 26.9479 23.2642 27.4393C23.2249 27.815 22.7897 28.0838 22.8629 28.4549C22.9937 29.1176 24.1679 27.8399 24.8693 27.947C25.4354 28.0336 25.4414 28.6148 26.0063 28.7087C26.2892 28.7558 26.4775 28.8152 26.7419 28.7087C27.1937 28.5269 27.277 27.6298 27.277 27.6298M29.6177 25.8526C29.7782 25.8526 30.3088 26.0431 30.4871 26.2334C30.6655 26.4238 29.644 27.26 29.9521 27.8201C30.4336 28.6951 32.0923 26.4238 32.0923 26.4238M8.7515 31.5947C8.5475 31.9603 8.45298 32.1679 8.35022 32.5468M9.08589 33.5623C8.88417 33.8617 8.81523 34.0226 8.7515 34.294M11.2027 32.5468C11.0932 32.9621 11.0196 33.1876 10.8248 33.5623M32.0999 14.6414C32.0999 14.6414 35.185 13.4275 34.4249 12.4277C33.9146 11.7565 32.8499 12.8562 32.4266 12.7847C32.0035 12.7133 31.2014 11.6422 30.6749 11.8564C29.4554 12.3526 32.0999 14.6414 32.0999 14.6414ZM32.0999 14.6414C32.0999 14.6414 32.0719 14.9066 32.0144 15.2842M32.0144 15.2842C31.2277 15.4639 30.7844 15.5083 29.9999 15.4984M32.0144 15.2842C32.4469 15.7897 32.7067 16.0303 33.2498 16.2688" stroke="#1F1F1F" stroke-linecap="round"/>
</g>
</svg>
