<svg width="27" height="33" viewBox="0 0 27 33" fill="none" xmlns="http://www.w3.org/2000/svg">
<path d="M24.1895 5.698C24.9615 6.722 25.3695 7.88467 25.3695 9.06C25.3695 10.2353 24.9615 11.398 24.1895 12.422C23.5221 13.3067 22.5988 14.0833 21.4448 14.7313C19.2728 15.9493 16.4281 16.62 13.4348 16.62C10.4415 16.62 7.59679 15.9493 5.42479 14.7313C4.27079 14.0833 3.34746 13.3067 2.68012 12.422C1.90812 11.398 1.50012 10.2353 1.50012 9.06C1.50012 7.88467 1.90812 6.722 2.68012 5.698C3.34746 4.81333 4.27079 4.03667 5.42479 3.38933C7.59679 2.17067 10.4415 1.5 13.4348 1.5C16.4281 1.5 19.2728 2.17067 21.4448 3.38933C22.5988 4.03667 23.5221 4.81333 24.1895 5.698ZM22.9615 10.702C23.2461 10.1827 23.3988 9.63133 23.3988 9.06C23.3988 5.97333 18.9375 3.47067 13.4348 3.47067C7.93212 3.47067 3.47079 5.97333 3.47079 9.06C3.47079 9.63133 3.62346 10.1827 3.90812 10.702C5.15812 12.9873 8.95079 14.6493 13.4348 14.6493C17.9188 14.6493 21.7115 12.9873 22.9615 10.702Z" fill="white"/>
<path d="M23.3989 9.05955C23.3989 9.63088 23.2463 10.1822 22.9616 10.7015C21.7109 8.41622 17.9189 6.75488 13.4349 6.75488C8.95095 6.75488 5.15895 8.41622 3.90828 10.7015C3.62361 10.1822 3.47095 9.63088 3.47095 9.05955C3.47095 5.97288 7.93228 3.47021 13.4349 3.47021C18.9376 3.47021 23.3989 5.97288 23.3989 9.05955Z" fill="#B8DBEC"/>
<path d="M24.5887 5.39687C23.8797 4.45667 22.9042 3.6344 21.6892 2.95293C19.4441 1.69353 16.5126 1 13.4348 1C10.3569 1 7.42547 1.69353 5.1804 2.95293C3.9654 3.63447 2.98993 4.45673 2.281 5.39693C1.443 6.5084 1 7.77507 1 9.06007V12.3447C1 13.6297 1.443 14.8964 2.281 16.0079C2.98993 16.948 3.96547 17.7703 5.1804 18.4518C7.3036 19.6428 10.0407 20.3273 12.9348 20.3982V21.4256C10.2465 21.6785 8.13547 23.9473 8.13547 26.7007C8.13547 29.6227 10.5127 32 13.4348 32C16.3569 32 18.7341 29.6227 18.7341 26.7007C18.7341 23.9473 16.6231 21.6785 13.9348 21.4256V20.3982C16.8289 20.3273 19.566 19.6427 21.6891 18.4518C22.9042 17.7703 23.8797 16.948 24.5886 16.0078C25.4266 14.8963 25.8696 13.6297 25.8696 12.3447V9.06C25.8696 7.775 25.4267 6.50833 24.5887 5.39687ZM3.0794 5.99893C3.70453 5.16993 4.576 4.43853 5.6696 3.82507C7.76773 2.64813 10.5255 2 13.4348 2C16.3441 2 19.1018 2.64813 21.2 3.82507C22.2936 4.43853 23.1651 5.16993 23.7903 5.99893C24.4965 6.93553 24.8697 7.99407 24.8697 9.06007C24.8697 10.1261 24.4964 11.1845 23.7903 12.1211C23.1651 12.9502 22.2937 13.6816 21.2 14.295C19.2225 15.4043 16.6589 16.0436 13.9348 16.1135V15.1425C16.4937 15.0737 18.8888 14.4785 20.7251 13.4483C22.7717 12.3003 23.8988 10.7419 23.8988 9.06007C23.8988 7.37827 22.7717 5.81987 20.7251 4.6718C18.7696 3.57487 16.1806 2.9708 13.4348 2.9708C10.689 2.9708 8.1 3.57487 6.14453 4.6718C4.09793 5.8198 2.9708 7.37827 2.9708 9.06C2.9708 10.7417 4.09793 12.3002 6.14453 13.4483C7.9808 14.4783 10.3759 15.0736 12.9348 15.1424V16.1134C10.2107 16.0435 7.64707 15.4043 5.66953 14.2949C4.576 13.6815 3.70447 12.9501 3.07933 12.1211C2.3732 11.1845 2 10.126 2 9.06C2 7.994 2.3732 6.93553 3.0794 5.99893ZM13.4348 13.4826C13.1586 13.4826 12.9348 13.7065 12.9348 13.9826V14.142C10.5464 14.0745 8.32473 13.5247 6.6338 12.5762C4.91647 11.6129 3.9708 10.3642 3.9708 9.06007C3.9708 7.75593 4.91653 6.50727 6.6338 5.54393C8.4422 4.52953 10.8575 3.9708 13.4348 3.9708C16.0121 3.9708 18.4274 4.52947 20.2358 5.54393C21.9531 6.5072 22.8988 7.75593 22.8988 9.06007C22.8988 10.3642 21.9531 11.6129 20.2358 12.5762C18.5449 13.5247 16.3232 14.0745 13.9348 14.142V13.9826C13.9348 13.7065 13.711 13.4826 13.4348 13.4826ZM5.66953 17.5797C4.576 16.9662 3.70447 16.2348 3.07933 15.4058C2.37313 14.4692 1.99993 13.4107 1.99993 12.3447V12.3212C2.08813 12.4571 2.18153 12.5913 2.28093 12.7231C2.98987 13.6633 3.9654 14.4855 5.18033 15.1671C7.30347 16.3581 10.0406 17.0427 12.9347 17.1135V19.3981C10.2107 19.3282 7.64713 18.6889 5.66953 17.5797ZM13.0937 24.1129C13.1831 24.1965 13.3027 24.248 13.4348 24.248C13.5669 24.248 13.6866 24.1965 13.7759 24.1129C13.9227 24.219 14.0187 24.3911 14.0187 24.5857C14.0187 24.9076 13.7567 25.1695 13.4348 25.1695C13.1129 25.1695 12.8509 24.9075 12.8509 24.5857C12.8509 24.3912 12.9469 24.2191 13.0937 24.1129ZM17.7341 26.7007C17.7341 29.0713 15.8054 31 13.4348 31C11.0642 31 9.13547 29.0713 9.13547 26.7007C9.13547 24.4992 10.799 22.68 12.9348 22.4313V23.0832C12.3058 23.2931 11.8509 23.8871 11.8509 24.5857C11.8509 25.4591 12.5614 26.1695 13.4348 26.1695C14.3082 26.1695 15.0187 25.459 15.0187 24.5857C15.0187 23.8871 14.5638 23.2931 13.9348 23.0832V22.4313C16.0706 22.68 17.7341 24.4992 17.7341 26.7007ZM24.8696 12.3447C24.8696 13.4107 24.4963 14.4692 23.7902 15.4057C23.1651 16.2348 22.2936 16.9661 21.1999 17.5796C19.2223 18.6889 16.6589 19.3281 13.9347 19.398V17.1135C16.8289 17.0426 19.566 16.358 21.6891 15.167C22.9041 14.4855 23.8795 13.6633 24.5885 12.7231C24.6879 12.5913 24.7813 12.4571 24.8695 12.3211L24.8696 12.3447Z" fill="#25567B" stroke="#25567B" stroke-width="0.469697"/>
<path d="M21.426 9.5059C21.5778 9.5059 21.7277 9.43704 21.826 9.30637C21.9919 9.08564 21.9476 8.77224 21.7269 8.60624C19.7399 7.11224 16.7176 6.25537 13.4348 6.25537C10.152 6.25537 7.12956 7.11224 5.14263 8.60624C4.9219 8.77224 4.87757 9.08564 5.04357 9.30637C5.2095 9.5271 5.52297 9.57157 5.7437 9.4055C7.53417 8.05917 10.4094 7.25537 13.4348 7.25537C16.4602 7.25537 19.3354 8.05917 21.1258 9.4055C21.2159 9.47317 21.3214 9.5059 21.426 9.5059Z" fill="#25567B"/>
</svg>
