<svg width="28" height="33" viewBox="0 0 28 33" fill="none" xmlns="http://www.w3.org/2000/svg">
<path d="M25.6621 5.6767C26.4831 6.69598 26.917 7.85329 26.917 9.02321C26.917 10.1931 26.4831 11.3504 25.6621 12.3697C24.9524 13.2503 23.9704 14.0234 22.7431 14.6684C20.4332 15.8808 17.4079 16.5484 14.2245 16.5484C11.041 16.5484 8.0157 15.8808 5.70577 14.6684C4.47848 14.0234 3.49651 13.2503 2.7868 12.3697C1.96577 11.3504 1.53186 10.1931 1.53186 9.02321C1.53186 7.85329 1.96577 6.69598 2.7868 5.6767C3.49651 4.79611 4.47848 4.02302 5.70577 3.37867C8.0157 2.16562 11.041 1.49805 14.2245 1.49805C17.4079 1.49805 20.4332 2.16562 22.7431 3.37867C23.9704 4.02302 24.9524 4.79611 25.6621 5.6767ZM24.3561 10.6576C24.6589 10.1407 24.8212 9.59191 24.8212 9.02321C24.8212 5.95077 20.0766 3.45963 14.2245 3.45963C8.37233 3.45963 3.62768 5.95077 3.62768 9.02321C3.62768 9.59191 3.79004 10.1407 4.09278 10.6576C5.42217 12.9324 9.45569 14.5868 14.2245 14.5868C18.9932 14.5868 23.0267 12.9324 24.3561 10.6576Z" fill="white"/>
<path d="M24.8214 9.02305C24.8214 9.59175 24.659 10.1405 24.3563 10.6575C23.0262 8.38268 18.9933 6.729 14.2246 6.729C9.45582 6.729 5.42301 8.38268 4.09291 10.6575C3.79017 10.1405 3.62781 9.59175 3.62781 9.02305C3.62781 5.95061 8.37246 3.45947 14.2246 3.45947C20.0767 3.45947 24.8214 5.95061 24.8214 9.02305Z" fill="#838383"/>
<path d="M26.0867 5.37661C25.3327 4.44074 24.2953 3.62226 23.0031 2.94393C20.6154 1.69034 17.4978 1 14.2245 1C10.9512 1 7.83353 1.69034 5.44588 2.94393C4.15372 3.62233 3.11631 4.4408 2.36235 5.37667C1.47113 6.48302 1 7.74385 1 9.02292V12.2925C1 13.5715 1.47113 14.8324 2.36235 15.9387C3.11631 16.8745 4.15379 17.693 5.44588 18.3714C7.70392 19.5569 10.6148 20.2383 13.6927 20.3088V21.3315C10.8337 21.5832 8.58861 23.8415 8.58861 26.5822C8.58861 29.4908 11.1169 31.8571 14.2245 31.8571C17.3321 31.8571 19.8604 29.4908 19.8604 26.5822C19.8604 23.8415 17.6153 21.5832 14.7562 21.3315V20.3088C17.8341 20.2383 20.7451 19.5568 23.003 18.3714C24.2953 17.693 25.3327 16.8745 26.0866 15.9386C26.9778 14.8323 27.449 13.5715 27.449 12.2924V9.02286C27.449 7.74378 26.9779 6.48295 26.0867 5.37661ZM3.21146 5.9759C3.87629 5.15072 4.8031 4.42269 5.96615 3.81205C8.19753 2.64054 11.1304 1.99539 14.2245 1.99539C17.3186 1.99539 20.2514 2.64054 22.4828 3.81205C23.6459 4.42269 24.5728 5.15072 25.2376 5.9759C25.9886 6.90818 26.3855 7.96184 26.3855 9.02292C26.3855 10.084 25.9886 11.1376 25.2376 12.0699C24.5728 12.8951 23.646 13.6232 22.4828 14.2337C20.3797 15.3379 17.6534 15.9743 14.7562 16.0438V15.0773C17.4776 15.0089 20.0249 14.4164 21.9777 13.391C24.1543 12.2482 25.353 10.697 25.353 9.02292C25.353 7.34887 24.1543 5.79766 21.9777 4.65488C19.8981 3.563 17.1447 2.96172 14.2245 2.96172C11.3043 2.96172 8.5509 3.563 6.47124 4.65488C4.29467 5.79759 3.09596 7.34887 3.09596 9.02286C3.09596 10.6968 4.29467 12.2481 6.47124 13.3909C8.42413 14.4162 10.9713 15.0087 13.6927 15.0772V16.0438C10.7956 15.9742 8.0692 15.3379 5.96608 14.2337C4.8031 13.623 3.87622 12.8951 3.21138 12.0699C2.46041 11.1376 2.06351 10.0839 2.06351 9.02286C2.06351 7.96177 2.46041 6.90818 3.21146 5.9759ZM14.2245 13.4251C13.9307 13.4251 13.6927 13.6479 13.6927 13.9228V14.0814C11.1527 14.0143 8.7899 13.4669 6.99158 12.5229C5.16519 11.564 4.15947 10.321 4.15947 9.02292C4.15947 7.7248 5.16526 6.48189 6.99158 5.52299C8.91483 4.51327 11.4836 3.95711 14.2245 3.95711C16.9654 3.95711 19.5342 4.5132 21.4574 5.52299C23.2838 6.48182 24.2895 7.7248 24.2895 9.02292C24.2895 10.321 23.2837 11.564 21.4574 12.5229C19.6591 13.467 17.2963 14.0143 14.7562 14.0814V13.9228C14.7562 13.6479 14.5182 13.4251 14.2245 13.4251ZM5.96608 17.5033C4.8031 16.8926 3.87622 16.1646 3.21138 15.3394C2.46034 14.4071 2.06344 13.3535 2.06344 12.2924V12.269C2.15724 12.4043 2.25657 12.5379 2.36228 12.6691C3.11624 13.605 4.15372 14.4234 5.44581 15.1018C7.70378 16.2873 10.6147 16.9687 13.6927 17.0393V19.3133C10.7957 19.2437 8.06927 18.6074 5.96608 17.5033ZM13.8617 24.0064C13.9568 24.0896 14.084 24.1409 14.2245 24.1409C14.3649 24.1409 14.4923 24.0896 14.5873 24.0064C14.7433 24.112 14.8454 24.2833 14.8454 24.477C14.8454 24.7974 14.5669 25.0581 14.2245 25.0581C13.8821 25.0581 13.6035 24.7974 13.6035 24.477C13.6035 24.2834 13.7056 24.1121 13.8617 24.0064ZM18.7969 26.5822C18.7969 28.942 16.7456 30.8617 14.2245 30.8617C11.7033 30.8617 9.65212 28.942 9.65212 26.5822C9.65212 24.3909 11.4213 22.5801 13.6927 22.3326V22.9814C13.0238 23.1903 12.54 23.7816 12.54 24.477C12.54 25.3464 13.2956 26.0535 14.2245 26.0535C15.1534 26.0535 15.9089 25.3463 15.9089 24.477C15.9089 23.7817 15.4252 23.1903 14.7562 22.9814V22.3326C17.0277 22.5801 18.7969 24.3909 18.7969 26.5822ZM26.3855 12.2924C26.3855 13.3535 25.9885 14.4071 25.2375 15.3393C24.5727 16.1646 23.6459 16.8926 22.4828 17.5032C20.3796 18.6073 17.6533 19.2437 14.7562 19.3132V17.0392C17.8341 16.9687 20.7451 16.2872 23.003 15.1017C24.2951 14.4234 25.3325 13.6049 26.0866 12.669C26.1923 12.5378 26.2916 12.4043 26.3854 12.269L26.3855 12.2924Z" fill="#1F1F1F" stroke="#1F1F1F" stroke-width="0.5"/>
<path d="M22.7232 9.467C22.8847 9.467 23.0441 9.39845 23.1486 9.26839C23.3251 9.04867 23.2779 8.73671 23.0433 8.57148C20.9301 7.08436 17.7158 6.23145 14.2245 6.23145C10.7332 6.23145 7.51891 7.08436 5.40579 8.57148C5.17104 8.73671 5.12389 9.04867 5.30043 9.26839C5.4769 9.4881 5.81028 9.53236 6.04503 9.36706C7.9492 8.02693 11.007 7.22684 14.2245 7.22684C17.4421 7.22684 20.4999 8.02693 22.404 9.36706C22.4998 9.43442 22.612 9.467 22.7232 9.467Z" fill="#1F1F1F"/>
</svg>
