<svg width="109" height="109" viewBox="0 0 109 109" fill="none" xmlns="http://www.w3.org/2000/svg">
<g id="cat-travel-bag-svgrepo-com 1">
<path id="Vector" fill-rule="evenodd" clip-rule="evenodd" d="M13.338 32.7C11.2737 36.7875 9.03 46.7504 11.9755 55.0109C12.5523 56.6282 13.2577 58.0898 14.0533 59.42C15.3792 54.3542 16.9585 49.0861 18.5641 45.4734C20.0877 42.0454 34.6508 36.5831 35.8566 36.1355C35.9145 36.1141 35.968 36.1124 36.029 36.1243L43.0891 37.482C43.0891 37.482 46.6657 34.9141 48.1985 34.4031C49.0054 34.1344 50.9882 34.2338 53.6263 34.5687C54.6499 31.6501 55.0505 28.9897 54.5 27.4204C53.486 24.5294 53.2084 25.4754 52.7611 26.9998C52.4972 27.9 52.1739 29.0021 51.6047 29.6344C50.0246 31.39 47.5172 30.9969 46.4953 28.6126C45.5951 26.5117 47.3469 23.6697 47.6875 23.1625C48.9458 21.2891 52.2982 20.4137 55.6922 21.4594C59.7722 22.7165 61.29 26.4026 61.6531 30.6563C61.8105 32.4996 61.6651 34.2212 61.2945 35.8215C68.6251 37.2034 77.0027 39.1746 81.0688 40.3641C88.5625 42.557 89.925 62.8453 80.2172 61.057V77.2633C80.2172 77.4019 80.1334 77.5266 80.0053 77.5787L62.6839 84.646C70.6746 85.9431 80.2881 85.0241 88.4457 77.6625C94.4277 72.2643 97.5288 67.643 98.1535 59.6094C98.8627 50.4891 95.2626 42.0672 91.8519 35.425C87.1449 26.258 79.5894 21.4698 73.1176 18.5641C66.6457 15.6583 56.2566 13.625 46.7191 13.625C37.1816 13.625 28.8364 17.5422 23.8974 20.6078C18.9583 23.6734 15.4022 28.6125 13.338 32.7Z" fill="#FFBB5F"/>
<path id="Vector_2" d="M58.9282 86.1785L80.0054 77.5787C80.1334 77.5266 80.2172 77.402 80.2172 77.2633V61.0571M58.9282 86.1785C59.6094 79.1954 61.3463 58.9394 65.2297 55.1813C70.5094 50.0719 80.2172 44.6219 80.2172 44.6219M58.9282 86.1785C53.6883 85.9479 49.093 85.6022 44.8403 85.0684M80.2172 61.0571V44.6219M80.2172 61.0571C89.925 62.8454 88.5625 42.557 81.0688 40.3641M80.2172 44.6219L72.7235 43.1811M44.8403 85.0684C46.0352 82.4258 47.0553 79.7761 47.7713 77.8032M44.8403 85.0684C42.5036 90.2354 39.4982 95.375 36.7875 95.375C33.9394 95.375 34.2989 89.2486 34.9277 83.3435M72.7235 43.1811C72.7235 43.1811 61.7669 47.929 57.225 53.6485C56.5925 54.4452 56.0138 55.496 55.4861 56.7141M72.7235 43.1811C74.7281 40.4281 76.1948 39.3364 81.0688 40.3641M72.7235 43.1811L59.3809 40.6151M43.0891 37.4821L36.029 36.1243C35.968 36.1128 35.9145 36.1141 35.8566 36.1359C34.6508 36.5832 20.0877 42.0454 18.5641 45.4735C14.7496 54.0562 11.0834 71.9833 10.6107 74.3397C10.5797 74.494 10.6606 74.6432 10.804 74.7086C13.8672 76.1052 16.7176 77.3359 19.4398 78.4204M43.0891 37.4821C43.0891 37.4821 46.6657 34.9141 48.1985 34.4032C49.0054 34.1344 50.9882 34.2339 53.6263 34.5687M43.0891 37.4821C43.0891 37.4821 37.9106 39.1392 33.0407 41.9313M43.0891 37.4821L51.6187 39.1222M19.4398 78.4204C20.0068 75.8249 20.8527 73.0444 22.0048 70.2461M19.4398 78.4204C17.7779 86.0286 18.511 92.0529 20.9485 92.3094C24.0137 92.632 27.0177 87.196 29.5548 81.9445M53.6263 34.5687C54.6499 31.6501 55.0505 28.9898 54.5 27.4205C52.8872 22.8221 53.1375 27.9314 51.6047 29.6345C50.0246 31.3901 47.5172 30.997 46.4954 28.6126C45.5951 26.5117 47.3469 23.6698 47.6875 23.1626C48.9458 21.2892 52.2982 20.4137 55.6922 21.4595C59.7722 22.7166 61.2901 26.4026 61.6532 30.6564C61.8105 32.4997 61.6651 34.2213 61.2945 35.8215M53.6263 34.5687C53.1045 36.0562 52.4209 37.6108 51.6187 39.1222M33.0407 41.9313C30.5625 43.3521 28.1642 45.0668 26.5688 47.0063C23.2928 50.9892 21.2278 67.3416 20.9748 69.4368C20.9584 69.5727 21.0259 69.7018 21.1452 69.7689C21.434 69.9314 21.7205 70.0905 22.0048 70.2461M33.0407 41.9313L32.0188 55.2917M51.6187 39.1222C49.3828 43.335 46.2266 47.2131 43.0891 48.3688C38.7737 49.9588 35.1028 52.3824 32.0188 55.2917M55.4861 56.7141C52.5299 63.5433 51.1823 75.6413 50.9579 77.8295C50.9381 78.0192 50.7682 78.1564 50.5788 78.135C49.6097 78.0253 48.675 77.9153 47.7713 77.8032M55.4861 56.7141C52.7673 52.5179 48.9162 52.1327 47.2968 51.7985C47.0254 51.7423 47.0158 51.446 47.2648 51.3237C49.2718 50.3393 55.8298 46.7699 59.3809 40.6151M81.0688 40.3641C77.0027 39.1746 68.6251 37.2034 61.2945 35.8215M59.3809 40.6151C60.2198 39.1614 60.8908 37.5635 61.2945 35.8215M22.0048 70.2461C24.1845 64.9511 27.4606 59.5914 32.0188 55.2917M47.7713 77.8032C48.4703 75.8777 48.8797 74.5969 48.8797 74.5969M39.5125 58.4172C40.3195 59.5764 40.5862 60.3189 40.7047 61.8235M37.4688 61.1422C39.1515 60.0083 40.204 59.576 42.2375 59.0985M57.225 78.1738C57.4945 79.2175 57.4301 79.7128 57.225 80.5579M52.9672 83.2829C53.5804 83.0546 54.1049 83.0383 55.4861 83.2829M74.5969 71.0204C74.5703 71.7084 74.5663 72.0589 74.5969 72.5532M76.9813 68.8063C76.939 69.4051 76.9333 69.7406 76.9813 70.3391M76.9813 73.2344C77.0675 74.0625 77.0474 74.3646 76.9813 74.5969M14.9875 68.9766C14.7809 69.3475 14.6273 69.8524 14.3063 71.1907M16.1797 72.5532C15.9497 73.4732 15.7959 73.7617 15.4985 74.086M32.9617 74.9457C33.8018 73.4187 34.52 72.467 35.0844 72.5532C35.6625 72.6414 35.7858 73.8639 35.6941 75.7016M32.9617 74.9457C33.8532 75.2172 34.7608 75.4679 35.6941 75.7016M32.9617 74.9457C31.9768 76.736 30.8242 79.3173 29.5548 81.9445M35.6941 75.7016C35.5926 77.7313 35.2292 80.5119 34.9277 83.3435M29.5548 81.9445C31.3453 82.4684 33.1263 82.9324 34.9277 83.3435M72.7235 23.1626C72.7235 23.1626 76.9813 19.9267 78.3438 23.1626C79.7063 26.3985 73.575 28.6126 73.575 28.6126M73.575 31.3376V32.0189M76.4703 55.7045V58.1832C76.4703 58.3242 76.3835 58.4506 76.252 58.5014L68.077 61.6457C67.8539 61.7312 67.6141 61.5667 67.6141 61.3275V59.3202C67.6141 59.1857 67.6935 59.0634 67.8168 59.0089L75.9918 55.3932C76.2173 55.2934 76.4703 55.4582 76.4703 55.7045Z" stroke="#63261D" stroke-width="1.70312" stroke-linecap="round"/>
</g>
</svg>
