<svg width="187" height="187" viewBox="0 0 187 187" fill="none" xmlns="http://www.w3.org/2000/svg">
<ellipse cx="133.364" cy="63.783" rx="10.1473" ry="11.5969" transform="rotate(32.2556 133.364 63.783)" fill="#FFBB5F"/>
<path d="M48.9065 77.1375C29.2138 63.8217 45.4437 43.0478 58.4374 64.2625" stroke="#63261D" stroke-width="5.16" stroke-linecap="round" stroke-linejoin="round"/>
<path d="M121.082 62.5506C130.763 46.9964 153.705 49.0365 139.433 70.125" stroke="#63261D" stroke-width="5.16" stroke-linecap="round" stroke-linejoin="round"/>
<path d="M75.339 74.3325C74.9692 72.0417 76.13 69.8276 76.6699 67.7875" stroke="#63261D" stroke-width="5.16" stroke-linecap="round" stroke-linejoin="round"/>
<path d="M90.695 77.1375C90.8862 73.2179 91.1382 69.2886 91.63 65.45" stroke="#63261D" stroke-width="5.16" stroke-linecap="round" stroke-linejoin="round"/>
<path d="M106.59 74.3325C106.59 72.304 106.59 70.2788 106.59 68.255" stroke="#63261D" stroke-width="5.16" stroke-linecap="round" stroke-linejoin="round"/>
<path d="M71.5275 104.253C75.0211 103.278 78.7204 102.861 82.28 102.383" stroke="#63261D" stroke-width="5.16" stroke-linecap="round" stroke-linejoin="round"/>
<path d="M105.188 102.382C108.878 101.647 112.331 101.883 115.94 102.382" stroke="#63261D" stroke-width="5.16" stroke-linecap="round" stroke-linejoin="round"/>
<path d="M87.89 119.682C103.551 111.612 101.606 123.701 89.5164 121.814" stroke="#63261D" stroke-width="5.16" stroke-linecap="round" stroke-linejoin="round"/>
<path d="M93.9676 124.823C93.0578 134.783 85.0724 135.657 78.0726 132.646" stroke="#63261D" stroke-width="5.16" stroke-linecap="round" stroke-linejoin="round"/>
<path d="M93.5192 124.823C92.9689 138.052 104.524 136.045 110.797 129.688" stroke="#63261D" stroke-width="5.16" stroke-linecap="round" stroke-linejoin="round"/>
<path d="M51.8925 113.603C45.0326 111.372 37.7795 111.249 30.855 110.33" stroke="#63261D" stroke-width="5.16" stroke-linecap="round" stroke-linejoin="round"/>
<path d="M54.2299 124.823C46.688 126.603 39.1499 127.979 31.7899 130.433" stroke="#63261D" stroke-width="5.16" stroke-linecap="round" stroke-linejoin="round"/>
<path d="M136.977 108.928C142.354 107.506 147.584 105.477 152.872 103.785" stroke="#63261D" stroke-width="5.16" stroke-linecap="round" stroke-linejoin="round"/>
<path d="M138.848 122.018C144.391 121.315 150.6 121.563 155.678 121.751" stroke="#63261D" stroke-width="5.16" stroke-linecap="round" stroke-linejoin="round"/>
</svg>
