<svg width="83" height="83" viewBox="0 0 83 83" fill="none" xmlns="http://www.w3.org/2000/svg">
<circle cx="45.5" cy="43.5" r="11.5" fill="#FFBB5F"/>
<path d="M70.5123 29.7277C72.0818 32.1667 72.7655 35.071 72.449 37.954L74.6237 31.2037C76.4373 34.5294 76.4126 37.4607 74.9018 43.4324L76.6949 40.554C76.8955 41.903 76.8051 43.2792 76.43 44.5904C76.0548 45.9016 75.4035 47.1174 74.5198 48.1561L76.9479 45.8819C74.7652 62.5037 61.637 67.704 43.9727 67.704M39.3491 67.5802C24.4743 66.7502 15.3557 61.7183 7.85509 51.62L12.2439 52.8555C9.30552 51.1059 4.98139 46.19 6.29418 41.685L12.2038 46.5881C9.62196 42.6027 6.46813 38.1188 7.2153 32.6164L12.2354 36.4171C12.8031 33.6235 13.9591 30.9828 15.6263 28.6705" stroke="#63261D" stroke-width="1.72917" stroke-linecap="round" stroke-linejoin="round"/>
<path d="M58.6337 48.0565L61.1606 51.0835L62.5508 47.6961L58.6337 48.0565Z" stroke="#63261D" stroke-width="1.72917" stroke-linecap="round" stroke-linejoin="round"/>
<path d="M61.0723 54.6429C62.0766 56.3134 62.573 56.4554 64.6373 56.1659C63.6545 56.7898 62.7416 57.5175 61.9142 58.3364C60.5417 59.9841 60.5907 62.716 58.88 64.0093C58.4344 64.3173 57.8854 64.4372 57.3519 64.343C57.0859 64.3081 56.8299 64.2185 56.6001 64.0799C56.3703 63.9412 56.1717 63.7565 56.0169 63.5374C55.0712 61.9678 55.9773 59.861 55.7056 58.0487C55.5483 56.9997 54.946 54.9583 54.946 54.9583C57.2999 56.5903 59.4397 56.4435 61.0723 54.6429Z" stroke="#63261D" stroke-width="1.72917" stroke-linecap="round" stroke-linejoin="round"/>
<path d="M46.6017 46.0341C47.4629 46.0341 48.1611 44.9868 48.1611 43.6949C48.1611 42.403 47.4629 41.3557 46.6017 41.3557C45.7405 41.3557 45.0424 42.403 45.0424 43.6949C45.0424 44.9868 45.7405 46.0341 46.6017 46.0341Z" stroke="#63261D" stroke-width="1.72917" stroke-linecap="round" stroke-linejoin="round"/>
<path d="M66.182 46.0543C66.871 46.0543 67.4296 45.1467 67.4296 44.027C67.4296 42.9074 66.871 41.9998 66.182 41.9998C65.493 41.9998 64.9344 42.9074 64.9344 44.027C64.9344 45.1467 65.493 46.0543 66.182 46.0543Z" stroke="#63261D" stroke-width="1.72917" stroke-linecap="round" stroke-linejoin="round"/>
<path d="M16.9936 17.9567C16.9814 14.1947 18.1176 10.5185 20.2505 7.41949C23.4624 8.14137 26.5162 9.44167 29.2627 11.2569M34.4199 15.9182C35.4307 17.1357 36.3356 18.4373 37.1249 19.8088" stroke="#63261D" stroke-width="1.72917" stroke-linecap="round" stroke-linejoin="round"/>
<path d="M56.0095 20.774C56.4769 18.8916 57.1732 17.0736 58.0827 15.3605M60.9568 11.2942C62.0896 10.0116 63.3627 8.8602 64.7521 7.86145C66.0031 9.06326 67.0144 10.4917 67.7323 12.0709" stroke="#63261D" stroke-width="1.72917" stroke-linecap="round" stroke-linejoin="round"/>
<path d="M35.4612 17.168C45.5495 15.1373 49.5428 15.771 56.2369 18.732" stroke="#63261D" stroke-width="1.72917" stroke-linecap="round" stroke-linejoin="round"/>
<path d="M18.3651 23.5959L24.6027 14.2393C28.7907 7.9578 57.5365 6.00021 66.5263 14.9891L74.3231 22.7858L71.2044 25.9046L63.4074 18.108C57.1235 11.8242 33.4007 12.7379 29.2811 18.9171L23.0435 28.2736L18.3651 23.5959Z" stroke="#63261D" stroke-width="1.72917" stroke-linecap="round" stroke-linejoin="round"/>
<path d="M30.8359 17.5012C32.4014 19.1229 33.3851 21.218 33.633 23.4584C33.8808 25.6989 33.3788 27.9583 32.2055 29.883C31.095 31.7707 29.3426 33.1958 27.2682 33.8983C25.1939 34.6007 22.9361 34.5335 20.9072 33.709C18.8566 32.8123 17.1697 31.2483 16.1206 29.2714C15.0716 27.2945 14.7221 25.0208 15.129 22.8201C15.4603 20.6317 16.545 18.6275 18.196 17.1533C19.847 15.6791 21.9607 14.8273 24.1725 14.7449" stroke="#63261D" stroke-width="1.72917" stroke-linecap="round" stroke-linejoin="round"/>
<path d="M64.8348 13.3991C67.8539 11.2793 71.6417 12.2555 73.7663 15.7008C74.8047 17.4619 75.3189 19.4828 75.2485 21.5261C75.178 23.5693 74.5259 25.55 73.3686 27.2354C72.9069 27.974 72.2897 28.6031 71.5601 29.0788C70.8304 29.5544 70.0058 29.8653 69.1437 29.9898C68.2816 30.1142 67.4028 30.0492 66.5684 29.7992C65.734 29.5492 64.9641 29.1204 64.3124 28.5425C62.8634 27.1291 61.8604 25.322 61.4275 23.3446C60.9945 21.3673 61.1507 19.3064 61.8766 17.4168" stroke="#63261D" stroke-width="1.72917" stroke-linecap="round" stroke-linejoin="round"/>
<path d="M19.8812 33.3384L19.2819 36.7934L21.7546 37.5646L23.601 34.3958" stroke="#63261D" stroke-width="1.72917" stroke-linecap="round" stroke-linejoin="round"/>
<path d="M20.4877 37.3632C20.3372 38.4998 20.3313 39.651 20.4704 40.7892C20.9174 42.6473 23.1401 43.9708 23.1034 45.8824C23.0187 50.2889 17.0026 52.9981 16.5844 57.3857C15.9779 63.7584 23.4518 68.363 22.7306 75.5805" stroke="#63261D" stroke-width="1.72917" stroke-linecap="round" stroke-linejoin="round"/>
<path d="M45.3431 54.5284C51.8025 54.5284 57.0389 49.292 57.0389 42.8326C57.0389 36.3733 51.8025 31.1369 45.3431 31.1369C38.8838 31.1369 33.6474 36.3733 33.6474 42.8326C33.6474 49.292 38.8838 54.5284 45.3431 54.5284Z" stroke="#63261D" stroke-width="1.72917" stroke-linecap="round" stroke-linejoin="round"/>
<path d="M44.2099 54.6686L43.8532 58.1631" stroke="#63261D" stroke-width="1.72917" stroke-linecap="round" stroke-linejoin="round"/>
<path d="M44.1743 56.98C43.6209 56.9373 43.0706 57.0945 42.6232 57.423C42.1759 57.7515 41.8611 58.2295 41.7362 58.7702L41.5029 61.3946C41.4587 61.8315 41.5561 62.2711 41.7809 62.6484C42.0056 63.0256 42.3457 63.3207 42.751 63.4898C43.34 63.5386 43.9274 63.3781 44.4098 63.0365C44.8921 62.6949 45.2385 62.1941 45.388 61.6223L45.7108 59.4356C45.7664 58.9134 45.6452 58.3876 45.3666 57.9425C45.0881 57.4973 44.6682 57.1584 44.1743 56.98Z" stroke="#63261D" stroke-width="1.72917" stroke-linecap="round" stroke-linejoin="round"/>
<path d="M40.6284 66.2058L39.3958 68.1486C39.1864 68.4698 39.0859 68.8499 39.1091 69.2327C39.1323 69.6154 39.278 69.9806 39.5246 70.2742C39.962 70.5481 40.482 70.659 40.993 70.5873C41.5041 70.5157 41.9735 70.266 42.3186 69.8824L43.4453 68.3151C43.6989 67.9295 43.8148 67.4696 43.7744 67.0099C43.734 66.5502 43.5396 66.1176 43.2226 65.7822C42.8105 65.5325 42.3229 65.438 41.8474 65.5157C41.3719 65.5933 40.9396 65.838 40.6284 66.2058Z" stroke="#63261D" stroke-width="1.72917" stroke-linecap="round" stroke-linejoin="round"/>
<path d="M35.2542 69.8652L32.9878 70.2613C32.2885 70.3836 31.4647 71.0786 31.5024 71.7875C31.5942 72.2953 31.8622 72.7545 32.2592 73.0842C32.6562 73.4139 33.1568 73.593 33.6729 73.59L35.5903 73.3685C36.0461 73.2965 36.4643 73.0727 36.7771 72.7334C37.0898 72.394 37.2789 71.9591 37.3136 71.4989C37.2209 71.0261 36.9626 70.6018 36.5851 70.3024C36.2076 70.0029 35.7357 69.8479 35.2542 69.8652Z" stroke="#63261D" stroke-width="1.72917" stroke-linecap="round" stroke-linejoin="round"/>
<path d="M29.5195 75.5805C29.6341 75.2669 29.6431 74.9244 29.5452 74.6052C29.4473 74.286 29.2478 74.0075 28.977 73.8121C28.5728 73.5577 28.0941 73.4482 27.6195 73.5016C27.1449 73.555 26.7025 73.7681 26.3649 74.106L25.0705 75.58" stroke="#63261D" stroke-width="1.72917" stroke-linecap="round" stroke-linejoin="round"/>
<path d="M43.1827 62.4269L42.451 66.1733" stroke="#63261D" stroke-width="1.72917" stroke-linecap="round" stroke-linejoin="round"/>
<path d="M40.3293 69.4808L36.2296 71.445" stroke="#63261D" stroke-width="1.72917" stroke-linecap="round" stroke-linejoin="round"/>
<path d="M32.9406 72.0065L28.3583 74.4951" stroke="#63261D" stroke-width="1.72917" stroke-linecap="round" stroke-linejoin="round"/>
</svg>
