<svg width="104" height="104" viewBox="0 0 104 104" fill="none" xmlns="http://www.w3.org/2000/svg">
<circle cx="68" cy="50" r="12" fill="#FFBB5F"/>
<path d="M3.79989 32.2049C4.10462 32.5096 4.51787 32.6807 4.94876 32.6807C5.37965 32.6807 5.7929 32.5096 6.09764 32.2049L7.34385 30.9586L8.5899 32.2049C8.73981 32.3601 8.91913 32.4839 9.11739 32.5691C9.31565 32.6542 9.52889 32.699 9.74466 32.7009C9.96042 32.7027 10.1744 32.6616 10.3741 32.5799C10.5738 32.4982 10.7552 32.3775 10.9078 32.2249C11.0604 32.0723 11.181 31.8909 11.2627 31.6912C11.3444 31.4915 11.3855 31.2775 11.3836 31.0617C11.3817 30.8459 11.3369 30.6327 11.2517 30.4345C11.1665 30.2362 11.0427 30.0569 10.8875 29.907L9.64111 28.6605L10.8875 27.4138C11.1846 27.1075 11.3493 26.6966 11.346 26.27C11.3427 25.8433 11.1718 25.435 10.8701 25.1333C10.5683 24.8316 10.16 24.6607 9.73335 24.6574C9.30667 24.6542 8.89584 24.8189 8.58957 25.116L7.34352 26.3622L6.09731 25.116C5.94741 24.9608 5.7681 24.837 5.56984 24.7519C5.37159 24.6667 5.15835 24.6219 4.94259 24.62C4.72682 24.6181 4.51284 24.6592 4.31314 24.7409C4.11343 24.8226 3.93199 24.9433 3.77942 25.0959C3.62684 25.2485 3.50618 25.4299 3.42447 25.6296C3.34277 25.8293 3.30165 26.0433 3.30353 26.2591C3.3054 26.4748 3.35023 26.6881 3.4354 26.8863C3.52056 27.0846 3.64436 27.2639 3.79956 27.4138L5.04577 28.6603L3.79956 29.9069C3.49486 30.2116 3.32372 30.625 3.32378 31.056C3.32384 31.4869 3.4951 31.9002 3.79989 32.2049Z" fill="#63241D"/>
<path d="M89.375 89.375C88.4108 89.375 87.4683 89.6609 86.6666 90.1966C85.8649 90.7323 85.2401 91.4936 84.8711 92.3844C84.5021 93.2752 84.4056 94.2554 84.5937 95.2011C84.7818 96.1467 85.2461 97.0154 85.9279 97.6971C86.6096 98.3789 87.4783 98.8432 88.4239 99.0313C89.3696 99.2194 90.3498 99.1229 91.2406 98.7539C92.1314 98.3849 92.8927 97.7601 93.4284 96.9584C93.9641 96.1567 94.25 95.2142 94.25 94.25C94.2486 92.9575 93.7345 91.7184 92.8206 90.8044C91.9067 89.8905 90.6675 89.3764 89.375 89.375ZM89.375 95.875C89.0536 95.875 88.7394 95.7797 88.4722 95.6011C88.205 95.4226 87.9967 95.1688 87.8737 94.8719C87.7507 94.5749 87.7185 94.2482 87.7812 93.933C87.8439 93.6178 87.9987 93.3282 88.226 93.101C88.4532 92.8737 88.7428 92.7189 89.058 92.6562C89.3732 92.5935 89.6999 92.6257 89.9969 92.7487C90.2938 92.8717 90.5476 93.08 90.7261 93.3472C90.9047 93.6144 91 93.9286 91 94.25C90.9994 94.6808 90.8281 95.0938 90.5234 95.3984C90.2188 95.7031 89.8058 95.8744 89.375 95.875Z" fill="#63241D"/>
<path d="M19.5 91C20.3975 91 21.125 90.2725 21.125 89.375C21.125 88.4775 20.3975 87.75 19.5 87.75C18.6025 87.75 17.875 88.4775 17.875 89.375C17.875 90.2725 18.6025 91 19.5 91Z" fill="#63241D"/>
<path d="M32.5 35.75C29.6075 35.75 26.7799 36.6077 24.3748 38.2148C21.9697 39.8218 20.0952 42.1059 18.9883 44.7783C17.8813 47.4506 17.5917 50.3912 18.156 53.2282C18.7203 56.0652 20.1132 58.6711 22.1586 60.7164C24.2039 62.7618 26.8098 64.1547 29.6468 64.719C32.4838 65.2833 35.4244 64.9937 38.0968 63.8867C40.7691 62.7798 43.0532 60.9053 44.6602 58.5002C46.2673 56.0951 47.125 53.2676 47.125 50.375C47.1207 46.4975 45.5785 42.7801 42.8367 40.0383C40.0949 37.2965 36.3775 35.7543 32.5 35.75ZM32.5 61.75C30.6786 61.7551 28.8827 61.3215 27.2643 60.4859C25.6459 59.6503 24.2525 58.4372 23.2019 56.9493C22.1513 55.4614 21.4745 53.7424 21.2287 51.9376C20.9829 50.1329 21.1753 48.2955 21.7896 46.5808C28.8601 45.1691 36.1399 45.1691 43.2104 46.5808C43.8247 48.2955 44.0171 50.1329 43.7713 51.9376C43.5255 53.7424 42.8487 55.4614 41.7981 56.9493C40.7475 58.4372 39.3541 59.6503 37.7357 60.4859C36.1173 61.3215 34.3214 61.7551 32.5 61.75Z" fill="#63241D"/>
<path d="M52 65H48.75C47.4571 65 46.2171 65.5136 45.3029 66.4279C44.3886 67.3421 43.875 68.5821 43.875 69.875C43.875 71.1679 44.3886 72.4079 45.3029 73.3221C46.2171 74.2364 47.4571 74.75 48.75 74.75H52C53.2929 74.75 54.5329 74.2364 55.4471 73.3221C56.3614 72.4079 56.875 71.1679 56.875 69.875C56.875 68.5821 56.3614 67.3421 55.4471 66.4279C54.5329 65.5136 53.2929 65 52 65Z" fill="#63241D"/>
<path d="M32.5 52C33.3975 52 34.125 51.2725 34.125 50.375C34.125 49.4775 33.3975 48.75 32.5 48.75C31.6025 48.75 30.875 49.4775 30.875 50.375C30.875 51.2725 31.6025 52 32.5 52Z" fill="#63241D"/>
<path d="M82.875 50.375C82.875 47.4825 82.0173 44.6549 80.4102 42.2498C78.8032 39.8447 76.5191 37.9702 73.8468 36.8633C71.1744 35.7563 68.2338 35.4667 65.3968 36.031C62.5598 36.5953 59.9539 37.9882 57.9086 40.0336C55.8632 42.0789 54.4703 44.6848 53.906 47.5218C53.3417 50.3588 53.6313 53.2994 54.7383 55.9718C55.8452 58.6441 57.7197 60.9282 60.1248 62.5353C62.5299 64.1423 65.3575 65 68.25 65C72.1275 64.9957 75.8449 63.4535 78.5867 60.7117C81.3285 57.9699 82.8707 54.2525 82.875 50.375ZM68.25 61.75C66.4286 61.7551 64.6327 61.3215 63.0143 60.4859C61.3959 59.6503 60.0025 58.4373 58.9519 56.9493C57.9013 55.4614 57.2245 53.7424 56.9787 51.9376C56.7329 50.1329 56.9253 48.2955 57.5396 46.5808C64.6101 45.1692 71.8899 45.1692 78.9604 46.5808C79.5747 48.2955 79.7671 50.1329 79.5213 51.9376C79.2755 53.7424 78.5987 55.4614 77.5481 56.9493C76.4976 58.4373 75.1041 59.6503 73.4857 60.4859C71.8673 61.3215 70.0714 61.7551 68.25 61.75Z" fill="#63241D"/>
<path d="M68.25 52C69.1475 52 69.875 51.2725 69.875 50.375C69.875 49.4775 69.1475 48.75 68.25 48.75C67.3525 48.75 66.625 49.4775 66.625 50.375C66.625 51.2725 67.3525 52 68.25 52Z" fill="#63241D"/>
<path d="M96.0376 71.508L86.8784 70.592C87.2426 69.6262 87.5648 68.6408 87.8526 67.6405L96.0772 66.6123C96.5006 66.5539 96.8839 66.3311 97.1442 65.9921C97.4044 65.653 97.5206 65.2252 97.4676 64.8011C97.4146 64.377 97.1967 63.9909 96.861 63.7263C96.5253 63.4618 96.099 63.3401 95.6742 63.3877L88.6646 64.2639C89.9664 57.5449 89.4747 50.6015 87.239 44.133C85.0033 37.6646 81.1027 31.8994 75.9298 27.4182C75.2355 22.7018 73.6982 14.1801 71.2271 10.4736C71.0295 10.1768 70.7397 9.95325 70.4024 9.83753C70.0651 9.72182 69.6991 9.72036 69.3609 9.83338C68.8409 10.0069 64.6018 11.6553 61.2738 19.4467C54.1526 17.3968 46.5976 17.3968 39.4764 19.4467C36.1484 11.6553 31.9094 10.0069 31.3892 9.83338C31.0511 9.72022 30.685 9.72161 30.3477 9.83733C30.0104 9.95306 29.7206 10.1767 29.5231 10.4736C27.0515 14.1806 25.5141 22.7042 24.8199 27.4204L24.7965 27.4338C19.6313 31.9168 15.7375 37.6806 13.5063 44.1457C11.2752 50.6109 10.7854 57.5494 12.0862 64.2639L5.07659 63.3877C4.86346 63.3583 4.64662 63.3715 4.43864 63.4266C4.23066 63.4816 4.03568 63.5774 3.86502 63.7084C3.69436 63.8394 3.55141 64.003 3.44447 64.1897C3.33752 64.3764 3.26872 64.5824 3.24204 64.7959C3.21536 65.0094 3.23133 65.2261 3.28904 65.4333C3.34675 65.6406 3.44505 65.8343 3.57822 66.0033C3.71139 66.1723 3.87679 66.3131 4.06482 66.4177C4.25286 66.5222 4.45978 66.5884 4.67359 66.6123L12.8982 67.6405C13.186 68.6408 13.5082 69.6262 13.8724 70.592L4.71259 71.508C4.28616 71.5539 3.89516 71.7665 3.62483 72.0994C3.3545 72.4324 3.22677 72.8588 3.26949 73.2855C3.31221 73.7123 3.52191 74.1048 3.85288 74.3776C4.18384 74.6504 4.60922 74.7813 5.03629 74.7417L15.2067 73.7248C15.7474 74.849 16.3397 75.9421 16.9836 77.0042L14.0539 78.1029C13.8541 78.1778 13.6709 78.2914 13.515 78.4371C13.359 78.5828 13.2333 78.7578 13.1449 78.952C13.0566 79.1463 13.0074 79.3561 13.0001 79.5694C12.9929 79.7827 13.0277 79.9954 13.1026 80.1952C13.1776 80.3951 13.2911 80.5782 13.4368 80.7342C13.5825 80.8901 13.7575 81.0159 13.9518 81.1042C14.3442 81.2826 14.7914 81.2978 15.195 81.1465L18.8381 79.7804C22.4491 84.7641 27.1898 88.821 32.6715 91.6186C38.1533 94.4162 44.2201 95.8747 50.3744 95.8747C56.5288 95.8747 62.5956 94.4162 68.0773 91.6186C73.5591 88.821 78.2998 84.7641 81.9108 79.7804L85.5539 81.1465C85.7537 81.2214 85.9664 81.2563 86.1797 81.249C86.393 81.2417 86.6028 81.1925 86.7971 81.1042C86.9914 81.0159 87.1664 80.8901 87.3121 80.7342C87.4578 80.5782 87.5713 80.3951 87.6463 80.1952C87.7212 79.9954 87.756 79.7827 87.7487 79.5694C87.7415 79.3561 87.6923 79.1463 87.604 78.952C87.5156 78.7578 87.3899 78.5828 87.2339 78.4371C87.078 78.2914 86.8948 78.1778 86.695 78.1029L83.7653 77.0042C84.4075 75.9426 84.9998 74.8494 85.5422 73.7248L95.7126 74.7417C95.7682 74.7473 95.8221 74.7497 95.8761 74.7497C96.2926 74.7491 96.6931 74.5885 96.9946 74.3012C97.2962 74.0138 97.476 73.6216 97.4967 73.2056C97.5174 72.7895 97.3776 72.3814 97.106 72.0655C96.8345 71.7496 96.452 71.55 96.0376 71.508ZM80.6599 75.8396L73.6963 73.2282C73.4964 73.1533 73.2838 73.1185 73.0705 73.1257C72.8572 73.133 72.6474 73.1822 72.4531 73.2705C72.2588 73.3588 72.0838 73.4846 71.9381 73.6405C71.7924 73.7965 71.6789 73.9796 71.6039 74.1795C71.4526 74.5831 71.4678 75.0303 71.6462 75.4227C71.8246 75.8151 72.1516 76.1205 72.5552 76.2718L78.7455 78.5931C75.414 82.956 71.1212 86.4916 66.2008 88.9253C61.2805 91.3589 55.8651 92.625 50.3757 92.625C44.8864 92.625 39.471 91.3589 34.5506 88.9253C29.6303 86.4916 25.3375 82.956 22.006 78.5931L28.1963 76.2718C28.5999 76.1205 28.9269 75.8151 29.1053 75.4227C29.2837 75.0303 29.2989 74.5831 29.1476 74.1795C28.9962 73.7759 28.6908 73.4489 28.2984 73.2705C27.906 73.0921 27.4588 73.0769 27.0552 73.2282L20.0916 75.8396C19.5888 75.0395 19.1176 74.219 18.6778 73.378L21.2876 73.1171C21.714 73.0712 22.105 72.8586 22.3754 72.5256C22.6457 72.1926 22.7734 71.7663 22.7307 71.3395C22.688 70.9128 22.4783 70.5202 22.1473 70.2474C21.8163 69.9746 21.391 69.8438 20.9639 69.8833L17.2337 70.2571C16.9446 69.5437 16.6784 68.8192 16.4352 68.0836L30.6742 69.8635C30.7417 69.8716 30.8096 69.8755 30.8775 69.875C31.2906 69.8741 31.6879 69.7159 31.9885 69.4326C32.2892 69.1493 32.4706 68.7621 32.496 68.3498C32.5213 67.9374 32.3887 67.5309 32.125 67.2129C31.8614 66.8949 31.4865 66.6892 31.0766 66.6377L15.4959 64.6901C14.1898 58.8888 14.3551 52.8528 15.9768 47.1317C17.5985 41.4105 20.6252 36.1856 24.7813 31.9326C24.986 32.173 25.2568 32.348 25.56 32.4361C25.8633 32.5241 26.1857 32.5212 26.4873 32.4278C26.7889 32.3344 27.0565 32.1546 27.2569 31.9105C27.4573 31.6665 27.5817 31.3691 27.6147 31.0551C28.0105 27.4971 29.4134 18.1804 31.4962 13.6235C32.9546 14.7352 35.5016 17.3935 37.4583 23.2648C37.5254 23.4676 37.6318 23.6551 37.7716 23.8165C37.9114 23.978 38.0816 24.1103 38.2727 24.2058C38.4637 24.3012 38.6717 24.358 38.8847 24.3729C39.0978 24.3877 39.3116 24.3604 39.5141 24.2923C39.873 24.1693 40.1767 23.9229 40.3711 23.597C40.5655 23.2712 40.638 22.8869 40.5757 22.5126C46.9839 20.7082 53.7659 20.7082 60.1742 22.5126C60.1119 22.8869 60.1844 23.2712 60.3788 23.597C60.5732 23.9229 60.8768 24.1693 61.2358 24.2923C61.4382 24.3603 61.6521 24.3876 61.8651 24.3727C62.0781 24.3578 62.2861 24.301 62.4771 24.2055C62.6681 24.1101 62.8383 23.9778 62.9781 23.8164C63.1179 23.655 63.2244 23.4675 63.2916 23.2648C65.2515 17.3838 67.804 14.7264 69.2529 13.6203C71.3356 18.1765 72.7385 27.4963 73.1352 31.0551C73.1791 31.4522 73.3678 31.8192 73.6652 32.086C73.9627 32.3528 74.348 32.5006 74.7475 32.5013C74.9802 32.5015 75.2101 32.4508 75.4211 32.3527C75.6321 32.2546 75.8191 32.1115 75.9688 31.9334C80.1249 36.1866 83.1515 41.4115 84.7732 47.1328C86.3949 52.854 86.5602 58.89 85.2541 64.6914L69.6736 66.6377C69.2637 66.6892 68.8888 66.8949 68.6251 67.2129C68.3615 67.5309 68.2288 67.9374 68.2542 68.3498C68.2795 68.7621 68.461 69.1493 68.7616 69.4326C69.0623 69.7159 69.4595 69.8741 69.8727 69.875C69.9408 69.8751 70.0089 69.8709 70.0766 69.8623L84.3157 68.0825C84.0722 68.8178 83.8061 69.5423 83.5171 70.2559L79.7869 69.8822C79.5738 69.8592 79.3581 69.8787 79.1525 69.9395C78.9469 70.0003 78.7554 70.1011 78.5889 70.2363C78.4224 70.3714 78.2844 70.5382 78.1826 70.7269C78.0809 70.9156 78.0176 71.1226 77.9962 71.336C77.9748 71.5493 77.9959 71.7648 78.0582 71.97C78.1205 72.1751 78.2228 72.3659 78.3592 72.5314C78.4955 72.6968 78.6633 72.8337 78.8528 72.934C79.0423 73.0343 79.2497 73.0961 79.4632 73.1159L82.0725 73.3769C81.6331 74.2183 81.1627 75.0392 80.6599 75.8396Z" fill="#63241D"/>
</svg>
