<svg width="38" height="38" viewBox="0 0 38 38" fill="none" xmlns="http://www.w3.org/2000/svg">
<g id="dog-origami-paper-svgrepo-com 1">
<g id="n">
<path id="o" d="M6.44814 26.1547L9.71376 25.0919L9.06658 22.3369L3.24783 19.3088C3.08158 19.2197 2.90345 19.3978 2.99251 19.5641L6.14533 25.6678C6.23439 25.84 6.33533 26.0003 6.44814 26.1606V26.1547Z" fill="#FDFBEA"/>
<path id="p" d="M19.6294 29.9963L21.3156 24.2547L19.6175 18.4656H12.3144C11.9403 18.4716 11.59 18.6556 11.3763 18.9644L9.06659 22.3309L6.44815 26.1488C6.5669 26.315 6.69753 26.4694 6.84003 26.6178L14.2856 34.1347C14.5231 34.3722 14.9032 34.3781 15.1466 34.1525L19.6294 29.9903V29.9963Z" fill="#FFBB5F"/>
<path id="q" d="M30.1566 28.9453C30.2101 28.785 30.2338 28.6128 30.2397 28.4465V16.2034L24.8901 13.7987L19.6176 16.2094L21.7491 22.5684L30.1626 28.9394L30.1566 28.9453Z" fill="#FFFCEB"/>
<path id="r" d="M19.6175 16.2153V18.4656L19.6294 29.9903L25.365 27.9834L26.3863 24.3912L19.6116 16.2153H19.6175Z" fill="#FFBB5F"/>
<path id="s" d="M19.6176 16.2153L25.7569 26.6297L26.3922 24.3912L19.6176 16.2153Z" fill="#FFBB5F"/>
<path id="t" d="M34.7166 9.46439L33.1788 6.85189L29.3669 5.98501L27.2947 4.6372C26.9682 4.42345 26.5822 4.31064 26.1903 4.31064H22.5982C22.2182 4.31064 21.8619 4.48283 21.6244 4.7797L19.4928 7.41001C19.3682 7.56439 19.2553 7.73064 19.1603 7.90876L22.4913 13.8166L30.2457 16.2094L34.4553 10.0106C34.5682 9.84439 34.6572 9.66033 34.7225 9.47033L34.7166 9.46439Z" fill="#FFBB5F"/>
<path id="u" d="M32.8997 3.68124C32.6919 3.63374 32.4781 3.705 32.3416 3.86531L30.5781 5.90781L33.6181 6.75093L34.9303 5.64656C34.865 5.48625 34.7641 5.34375 34.6394 5.225L33.1669 3.82968C33.0897 3.75843 33.0006 3.71093 32.8997 3.68718V3.68124Z" fill="#FFD3BB"/>
<path id="v" d="M34.9303 5.64062L30.584 5.90781L29.3668 5.985L34.7224 9.46437C34.7818 9.28625 34.8234 9.10219 34.8353 8.91219L35.0312 6.23437C35.0431 6.0325 35.0134 5.83063 34.9303 5.64656V5.64062Z" fill="#FFD3BB"/>
<path id="w" d="M30.2397 16.2034L19.1544 7.90282C19.0594 8.075 18.9762 8.25313 18.9109 8.43719L16.3459 15.6572C16.2509 15.9303 16.4528 16.2213 16.7437 16.2213H19.6056L30.2337 16.2094L30.2397 16.2034Z" fill="#FFBB5F"/>
<path id="x" d="M26.3921 24.3972L19.6293 29.9963L25.549 34.2178C25.8221 34.4138 26.1962 34.3544 26.3981 34.0872L29.8775 29.5153C30.0021 29.3431 30.1031 29.1472 30.1565 28.9394L26.3862 24.3913L26.3921 24.3972Z" fill="#FFFCEB"/>
<path id="y" d="M34.9303 5.64061L31.4628 4.88655L30.584 5.9078L34.9303 5.64061Z" fill="#FFD3BB"/>
<path id="a`" d="M34.7166 9.46437L31.4391 5.85437L29.361 5.97906L34.7166 9.45843V9.46437Z" fill="#FFD3BB"/>
<path id="aa" d="M6.44815 26.1547L7.68315 21.6184L9.06659 22.3369L6.44815 26.1547Z" fill="#FFBB5F"/>
<path id="ab" d="M26.3922 24.3972L25.08 25.4837L28.5178 31.3144L29.8835 29.5212C30.0081 29.3491 30.1091 29.1531 30.1625 28.9453L26.3922 24.3972Z" fill="#FFD3BB"/>
<path id="Vector" d="M10.8894 18.6319L8.87656 21.565L3.52094 18.7744C3.135 18.5785 2.66594 18.7269 2.46406 19.1069C2.34531 19.3325 2.34531 19.6056 2.46406 19.8313L5.61687 25.935C5.82469 26.3388 6.09781 26.7128 6.41844 27.0394L13.8641 34.5563C14.3272 35.0253 15.0694 35.0372 15.5503 34.5919L19.6769 30.7622L25.2047 34.6988C25.4184 34.8531 25.6678 34.9244 25.9112 34.9244C26.2734 34.9244 26.6356 34.7581 26.8731 34.4435L30.3466 29.8775C30.6613 29.4678 30.8334 28.9572 30.8334 28.4406V16.3875L34.9422 10.3372C35.2212 9.92752 35.3875 9.44658 35.4231 8.95377L35.6191 6.27595C35.6606 5.71783 35.4528 5.17752 35.0431 4.79158L33.5766 3.4022C33.4281 3.25377 33.2381 3.15283 33.0303 3.10533C32.6088 3.01033 32.1753 3.15283 31.8963 3.47939L30.2991 5.33189L29.5272 5.37939L27.6213 4.13845C27.1938 3.86533 26.7009 3.71689 26.1962 3.71689H22.6041C22.0459 3.71689 21.5175 3.96627 21.1672 4.3997L19.0356 7.03002C18.7447 7.3922 18.5131 7.79595 18.3588 8.23533L15.7937 15.4553C15.7047 15.7106 15.7166 15.9897 15.8353 16.2331C15.9541 16.4766 16.1559 16.6606 16.4112 16.7556C16.5181 16.7972 16.6369 16.815 16.7497 16.815H19.0178V17.8778H12.3084C11.7384 17.8838 11.2041 18.1628 10.8834 18.6378L10.8894 18.6319ZM4.10875 20.4191L8.20562 22.5506L6.50156 25.0385L4.11469 20.4191H4.10875ZM20.2172 17.86L25.5609 24.3141L20.2291 28.7316L20.2172 18.4656V17.86ZM29.6519 27.3897L20.8822 16.8031H29.6519V27.3897ZM25.8994 33.725L20.6091 29.9547L26.3209 25.2285L29.4619 29.0166C29.4381 29.0581 29.4441 29.1175 29.4144 29.1531L25.9053 33.725H25.8994ZM34.4316 6.27002L34.2713 8.46689L31.1956 6.46595L34.4316 6.27002ZM33.6716 5.12408L31.9497 5.23095L32.775 4.27502L33.6716 5.12408ZM22.0875 5.14783C22.2122 4.99345 22.4022 4.90439 22.6041 4.90439H26.1962C26.4753 4.90439 26.7425 4.98158 26.9741 5.13595L33.9625 9.67814L30.1031 15.3603L19.9678 7.7722L22.0875 5.15377V5.14783ZM16.9931 15.6335L19.4097 8.82908L28.4644 15.6097L16.9931 15.6275V15.6335ZM19.0297 19.0653L19.0416 29.741L14.7131 33.725L7.2675 26.2081C7.2675 26.2081 7.22594 26.1428 7.20219 26.1191L11.8691 19.3088C11.97 19.1603 12.1362 19.0713 12.3144 19.0713H19.0238L19.0297 19.0653Z" fill="#63261D"/>
</g>
</g>
</svg>
