<svg width="141" height="141" viewBox="0 0 141 141" fill="none" xmlns="http://www.w3.org/2000/svg">
<path fill-rule="evenodd" clip-rule="evenodd" d="M17.2536 39.6563C14.5834 44.9438 11.6809 57.8316 15.4912 68.5172C17.4026 73.8778 20.4069 77.914 23.6642 81.1605L24.045 62.3484L24.3037 49.5703L40.8272 41.1985L54.0294 45.1641C55.5028 42.1884 57.1569 39.259 58.9587 36.5719C58.0466 35.6071 57.2926 34.6887 56.9274 34.2308C56.7899 34.0582 56.8062 33.8115 56.9626 33.6554L63.8108 26.8072C63.9051 26.7128 64.0364 26.6662 64.1682 26.688C64.6608 26.769 65.9333 27.0366 66.986 27.7594C66.986 27.7594 74.7551 25.9969 80.0425 27.7594C80.8211 28.0188 81.5129 28.3024 82.1307 28.6407C82.1307 28.6407 87.3129 27.5391 89.2957 27.9797C90.9264 28.3421 91.512 29.8471 91.7191 31.5047C91.9394 33.2672 91.7191 37.8938 91.7191 37.8938C91.7839 37.8938 91.8482 37.8938 91.9121 37.8938C92.5268 37.8938 93.1335 37.8938 93.8064 37.9246C94.4298 37.9531 95.1102 38.0081 95.9051 38.1141C97.7143 38.3553 98.6316 39.4088 98.9894 41.1985C99.178 42.1395 98.8123 43.4914 98.1932 44.9438C96.6378 48.5921 93.4816 52.875 93.4816 52.875L115.733 57.9422V70.7203V96.6004C122.609 90.1202 126.209 84.2488 126.969 74.4656C127.886 62.6679 123.23 51.7734 118.818 43.1813C112.729 31.323 102.955 25.1291 94.5832 21.3703C86.2113 17.6115 72.7722 14.9813 60.4347 14.9813C48.0972 14.9813 37.302 20.0485 30.913 24.0141C24.524 27.9797 19.9239 34.3688 17.2536 39.6563Z" fill="#FFBB5F"/>
<path d="M40.8271 41.1985L24.3037 49.5703M40.8271 41.1985L54.0295 45.1641M40.8271 41.1985V54.5595M24.3037 49.5703L24.045 62.3485M24.3037 49.5703L40.8271 54.5595M40.8271 54.5595L49.1117 57.061M24.045 62.3485L23.5099 88.786M24.045 62.3485L41.9287 66.8301M98.7692 126.019L23.5262 104.082C23.335 104.026 23.2049 103.849 23.209 103.65L23.5099 88.786M98.7692 126.019L115.555 113.593C115.667 113.51 115.733 113.379 115.733 113.239V99.5813M98.7692 126.019V109.936M23.5099 88.786L38.4153 92.975M115.733 99.5813V70.7203M115.733 99.5813L98.7692 109.936M98.7692 109.936V80.1938M98.7692 109.936L62.5291 99.7514M115.733 57.9422L93.4817 52.875M115.733 57.9422L98.7692 67.1953M115.733 57.9422V70.7203M93.4817 52.875C93.4817 52.875 96.6375 48.5921 98.1929 44.9438M93.4817 52.875C90.4952 53.6439 88.4983 53.8074 86.8723 53.2817M98.7692 67.1953V80.1938M98.7692 67.1953L85.5505 64.6459M115.733 70.7203L98.7692 80.1938M98.1929 44.9438C98.8124 43.4913 99.1777 42.1395 98.9895 41.1985C98.6317 39.4088 97.7144 38.3553 95.9052 38.1141C95.1103 38.0081 94.4299 37.9531 93.8065 37.9246M98.1929 44.9438C94.6904 43.2263 93.6937 41.7066 93.8065 37.9246M86.8723 53.2817C86.4062 53.131 85.9704 52.9235 85.5505 52.6574M86.8723 53.2817C86.8723 53.2817 87.5333 62.1281 86.8723 64.111C86.6639 64.7371 86.159 64.7547 85.5505 64.6459M85.5505 64.6459C84.5027 64.4595 83.1477 63.8999 82.4661 65.4328C81.8831 66.745 80.0585 71.6734 77.4936 75.743M62.5291 99.7514C66.6512 95.8703 70.6825 89.4707 73.773 80.1938M62.5291 99.7514C53.9074 107.869 44.8874 104.969 43.2426 94.3312M66.9856 27.7594C65.933 27.0366 64.6604 26.7689 64.1683 26.6879C64.0365 26.6663 63.9052 26.7128 63.8105 26.8072L56.9623 33.6554C56.8063 33.8115 56.7896 34.0582 56.9275 34.2308C57.2928 34.6887 58.0467 35.6071 58.9583 36.5719M66.9856 27.7594C67.3355 27.9996 67.6611 28.2901 67.9255 28.6406C70.1753 31.6226 67.2645 37.2328 66.3833 38.3344C65.287 39.7047 63.4575 40.1578 61.977 39.2156C60.9676 38.5733 59.8819 37.5488 58.9583 36.5719M66.9856 27.7594C66.9856 27.7594 74.7552 25.9969 80.0427 27.7594C80.8208 28.0188 81.513 28.3023 82.1308 28.6406M58.9583 36.5719C54.7085 42.9107 51.2787 50.5979 49.1117 57.061M82.1308 28.6406C83.5368 29.411 84.5573 30.4654 85.3302 32.1656C86.4317 34.5891 85.2253 37.3574 87.7536 37.6735C89.4209 37.8818 90.5952 37.8931 91.7192 37.8937M82.1308 28.6406C82.1308 28.6406 87.313 27.5391 89.2958 27.9797C90.9265 28.3421 91.5121 29.8471 91.7192 31.5047C91.9395 33.2672 91.7192 37.8937 91.7192 37.8937M83.127 50.3643C83.9479 51.3699 84.7177 52.129 85.5505 52.6574M85.5505 52.6574C85.5505 52.6574 81.8572 58.4057 79.1614 56.8406C77.1257 55.6585 77.8395 51.8946 77.8395 51.8946M86.4317 48.2485C83.6236 50.4 81.3531 51.4214 77.8395 51.8946M77.8395 51.8946C76.619 52.059 75.2487 52.1577 73.6536 52.2141M93.8065 37.9246C93.0631 37.8906 92.4004 37.8941 91.7192 37.8937M49.1117 57.061C47.5862 61.6113 46.6869 65.5544 46.5688 67.9929M77.4936 75.743L98.7692 81.075M77.4936 75.743C76.3793 77.5113 75.1257 79.1169 73.773 80.1938M46.5688 67.9929C46.5596 68.1766 46.5552 68.3511 46.5552 68.5172C46.5552 70.6525 46.6878 72.3573 47.0042 73.6188M46.5688 67.9929L41.9287 66.8301M41.9287 66.8301C37.3586 77.3456 36.6507 86.6859 38.4153 92.975M73.773 80.1938C72.4886 81.2165 71.1152 81.7615 69.688 81.5156C68.5785 81.3244 67.8303 80.6018 67.3535 79.5328M66.7301 73.0455C67.1592 67.5148 69.0464 61.2196 69.2473 60.586C69.4417 59.9744 61.7567 58.8235 60.8755 59.7047C60.3613 60.2194 57.669 65.6144 54.9914 70.1039M66.7301 73.0455L54.9914 70.1039M66.7301 73.0455C66.534 75.5716 66.6419 77.9378 67.3535 79.5328M54.9914 70.1039C53.0821 73.3046 51.1804 76.0448 50.0802 76.2281C48.4613 76.4978 47.5034 75.6113 47.0042 73.6188M67.3535 79.5328C63.2535 88.4454 59.0226 94.2977 55.0813 97.6584M47.0042 73.6188C43.3932 82.1105 42.4403 89.1415 43.2426 94.3312M38.4153 92.975C40.7396 101.258 47.3531 104.248 55.0813 97.6584M55.0813 97.6584L43.2426 94.3312M27.3881 83.2781V85.261M26.7271 98.7V101.123M94.8036 84.8203V87.0235M91.0583 89.2266V91.65M94.8036 91.65V93.8531M110.666 109.495L112.649 108.394M109.344 113.902L111.107 113.02M74.7552 35.911V39.436M80.0427 35.911V39.436M106.7 38.775C110.429 35.3871 112.381 33.8078 115.072 32.8266M110.005 43.1813C114.196 42.713 116.215 42.5809 118.818 42.7406M108.683 48.6891C112.235 48.8772 114.043 49.2861 117.055 50.3643" stroke="#63241D" stroke-width="2.20312" stroke-linecap="round"/>
</svg>
