<svg width="56" height="56" viewBox="0 0 56 56" fill="none" xmlns="http://www.w3.org/2000/svg">
<path d="M52.4076 27.1376C51.5789 26.2799 50.4461 25.7827 49.2539 25.7533C48.0616 25.724 46.9057 26.1649 46.0359 26.9808L37.4133 34.6416C37.8493 35.4825 38.076 36.4161 38.074 37.3632C38.0694 38.5846 37.6945 39.7758 36.9987 40.7796C36.303 41.7834 35.3191 42.5526 34.1771 42.9856L26.9319 45.7072C26.654 45.8065 26.3483 45.7929 26.0804 45.6693C25.8124 45.5458 25.6036 45.3222 25.4986 45.0464C25.4455 44.9098 25.4202 44.7639 25.4242 44.6174C25.4282 44.4709 25.4614 44.3266 25.5219 44.1931C25.5824 44.0596 25.6689 43.9395 25.7764 43.8398C25.884 43.7402 26.0103 43.663 26.148 43.6128L33.3932 40.8912C34.1093 40.6192 34.7259 40.1363 35.1618 39.5064C35.5976 38.8765 35.8322 38.1292 35.8344 37.3632C35.8069 36.374 35.4016 35.4328 34.7019 34.7329C34.0022 34.0331 33.0611 33.6277 32.0718 33.6H11.1985C11.1985 33.3059 11.1406 33.0146 11.0281 32.7429C10.9155 32.4711 10.7506 32.2242 10.5426 32.0162C10.3346 31.8082 10.0877 31.6432 9.816 31.5306C9.54426 31.418 9.25301 31.3601 8.95887 31.36H4.47961C4.18547 31.3601 3.89422 31.418 3.62248 31.5306C3.35075 31.6432 3.10385 31.8082 2.89588 32.0162C2.68791 32.2242 2.52295 32.4711 2.41041 32.7429C2.29787 33.0146 2.23996 33.3059 2.23999 33.6V51.52C2.23995 52.1141 2.47588 52.6838 2.89589 53.1039C3.3159 53.5239 3.88558 53.76 4.47961 53.76H8.95887C9.5529 53.76 10.1226 53.5239 10.5426 53.1039C10.9626 52.6838 11.1985 52.1141 11.1985 51.52H15.7338L17.1335 52.0912C21.4774 53.8885 26.2834 54.2448 30.8449 53.1078C35.4064 51.9708 39.4828 49.4004 42.4749 45.7744L52.6763 33.4432C53.4207 32.5457 53.8053 31.4037 53.7557 30.2387C53.706 29.0737 53.2256 27.9686 52.4076 27.1376ZM14.5579 49.28H11.1985V35.84H14.5579V49.28ZM34.0683 2.24003C31.8587 2.23408 29.7145 2.98874 27.9957 4.37721C26.2769 2.98874 24.1326 2.23409 21.9231 2.24003C19.3463 2.24646 16.8773 3.2747 15.0576 5.09918C13.2379 6.92366 12.2162 9.39541 12.2166 11.9722C12.2166 22.2119 26.8102 30.8449 27.4314 31.208C27.6028 31.3076 27.7975 31.36 27.9957 31.36C28.1939 31.36 28.3886 31.3076 28.56 31.208C29.1811 30.8448 43.7748 22.2119 43.7748 11.9722C43.7751 9.39541 42.7534 6.92366 40.9338 5.09918C39.1141 3.2747 36.645 2.24646 34.0683 2.24003ZM32.0836 23.136C31.8788 23.3041 31.6202 23.3927 31.3554 23.3856C31.1296 23.3838 30.9097 23.3136 30.7248 23.1841C30.5398 23.0547 30.3985 22.8721 30.3196 22.6606C30.2406 22.4491 30.2277 22.2187 30.2826 21.9997C30.3375 21.7807 30.4575 21.5835 30.6268 21.4342C34.7726 17.8828 37.0559 14.5217 37.0559 11.9722C37.0583 11.1769 36.745 10.413 36.1849 9.84835C35.6248 9.28365 34.8636 8.96418 34.0683 8.96003C33.7712 8.96003 33.4863 8.84203 33.2763 8.63199C33.0663 8.42194 32.9483 8.13707 32.9483 7.84003C32.9483 7.54298 33.0663 7.25811 33.2763 7.04807C33.4863 6.83803 33.7712 6.72003 34.0683 6.72003C35.4575 6.72482 36.788 7.28051 37.768 8.26516C38.748 9.24981 39.2973 10.583 39.2955 11.9722C39.2955 16.0923 35.3741 20.3163 32.0836 23.136Z" fill="#FF9300"/>
</svg>
