<svg width="20" height="19" viewBox="0 0 20 19" fill="none" xmlns="http://www.w3.org/2000/svg">
<path id="Vector" d="M9.96071 8.07324C12.9074 7.46888 18.0196 11.1673 18.6093 14.0427C18.8749 15.3378 18.0388 16.3155 16.3716 16.6574C14.5592 17.0291 13.1717 16.3439 11.7182 16.642C10.2521 16.9427 9.24289 18.1195 7.44652 18.4879C5.7793 18.8299 4.62577 18.2603 4.36016 16.9652C3.77041 14.0898 7.01402 8.6776 9.96071 8.07324ZM15.3299 6.48442C15.4521 5.1195 16.4702 4.04297 17.6038 4.07961C18.7373 4.11626 19.5569 5.25243 19.4347 6.61735C19.3125 7.98226 18.2944 9.0588 17.1608 9.02215C16.0273 8.98551 15.2077 7.84933 15.3299 6.48442ZM12.028 6.35811C10.818 6.29153 9.92542 4.85826 10.0343 3.15695C10.1432 1.45565 11.2125 0.130812 12.4226 0.197391C13.6326 0.263969 14.5251 1.69724 14.4163 3.39854C14.3074 5.09985 13.2378 6.42513 12.028 6.35811ZM1.36312 7.41095C2.39071 6.93106 3.75004 7.51997 4.40003 8.72651C5.04966 9.93313 4.74345 11.3002 3.71586 11.7801C2.68826 12.26 1.32893 11.6711 0.678938 10.4645C0.0293141 9.25792 0.335523 7.89084 1.36312 7.41095ZM7.38516 7.31035C6.29901 7.84788 4.79455 7.05092 4.02474 5.52984C3.25494 4.00875 3.51131 2.34023 4.59738 1.80233C5.68345 1.26443 7.18799 2.06176 7.9578 3.58285C8.7276 5.10393 8.47131 6.77283 7.38516 7.31035Z" fill="#47A52B"/>
</svg>
