<svg width="29" height="29" viewBox="0 0 29 29" fill="none" xmlns="http://www.w3.org/2000/svg">
<path d="M14.5 18.125C16.502 18.125 18.125 16.502 18.125 14.5C18.125 12.498 16.502 10.875 14.5 10.875C12.498 10.875 10.875 12.498 10.875 14.5C10.875 16.502 12.498 18.125 14.5 18.125Z" stroke="#1F1F1F" stroke-width="1.8125"/>
<path d="M4.42383 12.8558C4.99483 13.2145 5.36222 13.8257 5.36222 14.5C5.36221 15.1743 4.99481 15.7855 4.42383 16.1443C4.03528 16.3883 3.78493 16.5835 3.60683 16.8156C3.21664 17.3242 3.04444 17.9668 3.12811 18.6023C3.19085 19.0788 3.47235 19.5664 4.03536 20.5416C4.59838 21.5168 4.87989 22.0043 5.26125 22.297C5.76974 22.6871 6.41241 22.8593 7.04787 22.7757C7.33791 22.7375 7.63203 22.6183 8.03764 22.4039C8.63393 22.0888 9.34701 22.0762 9.93109 22.4135C10.5151 22.7507 10.8607 23.3744 10.8859 24.0483C10.903 24.5069 10.9468 24.8213 11.0588 25.0916C11.3041 25.6837 11.7746 26.1542 12.3667 26.3995C12.8108 26.5834 13.3738 26.5834 14.4999 26.5834C15.6259 26.5834 16.1889 26.5834 16.633 26.3995C17.2251 26.1542 17.6957 25.6837 17.9409 25.0916C18.0528 24.8213 18.0967 24.5069 18.1139 24.0485C18.139 23.3744 18.4846 22.7507 19.0687 22.4135C19.6527 22.0763 20.3657 22.0889 20.9619 22.404C21.3677 22.6184 21.6618 22.7377 21.9518 22.7758C22.5872 22.8596 23.2299 22.6873 23.7384 22.2971C24.1198 22.0046 24.4013 21.5169 24.9644 20.5417C25.215 20.1076 25.4099 19.7701 25.5544 19.4871M24.5758 16.1444C24.0048 15.7856 23.6375 15.1745 23.6374 14.5002C23.6374 13.8258 24.0048 13.2145 24.5758 12.8558C24.9644 12.6117 25.2146 12.4166 25.3927 12.1844C25.7829 11.6759 25.9551 11.0333 25.8715 10.3978C25.8088 9.92122 25.5272 9.43364 24.9641 8.45847C24.4012 7.4833 24.1196 6.99573 23.7383 6.70309C23.2298 6.31291 22.5871 6.14071 21.9516 6.22436C21.6616 6.26256 21.3675 6.38177 20.9619 6.59617C20.3656 6.91131 19.6525 6.92388 19.0686 6.58666C18.4846 6.24946 18.139 5.62572 18.1139 4.95187C18.0967 4.49329 18.0528 4.17892 17.9409 3.90859C17.6957 3.31645 17.2251 2.84598 16.633 2.6007C16.1889 2.41675 15.6259 2.41675 14.4999 2.41675C13.3738 2.41675 12.8108 2.41675 12.3667 2.6007C11.7746 2.84598 11.3041 3.31645 11.0588 3.90859C10.9468 4.1789 10.903 4.49324 10.8859 4.95176C10.8607 5.62567 10.5151 6.24947 9.93104 6.58666C9.347 6.92386 8.63398 6.91125 8.03775 6.59613C7.63209 6.38172 7.33794 6.2625 7.04788 6.2243C6.41242 6.14065 5.76975 6.31285 5.26126 6.70303C4.8799 6.99567 4.5984 7.48325 4.03537 8.45841C3.78473 8.89256 3.58987 9.23004 3.44527 9.51296" stroke="#1F1F1F" stroke-width="1.8125" stroke-linecap="round"/>
</svg>
