<svg width="20" height="19" viewBox="0 0 20 19" fill="none" xmlns="http://www.w3.org/2000/svg">
<g clip-path="url(#clip0_224_2346)">
<path d="M9.78911 8.29176C12.6818 8.29176 16.7831 12.7636 16.7831 15.5863C16.7831 16.8576 15.8065 17.6171 14.1698 17.6171C12.3907 17.6171 11.216 16.7035 9.78911 16.7035C8.34987 16.7035 7.17182 17.6171 5.40838 17.6171C3.7717 17.6171 2.79509 16.8576 2.79509 15.5863C2.79509 12.7636 6.89643 8.29176 9.78911 8.29176ZM15.1541 7.83241C15.5329 6.57021 16.7001 5.75278 17.7608 6.00632C18.8216 6.25985 19.3742 7.48854 18.9953 8.75074C18.6165 10.0129 17.4494 10.8304 16.3886 10.5768C15.3279 10.3233 14.7753 9.09461 15.1541 7.83241ZM12.068 7.07546C10.9409 6.77894 10.377 5.25628 10.8083 3.67461C11.2396 2.09295 12.5029 1.05149 13.63 1.34801C14.757 1.64453 15.3209 3.16718 14.8896 4.74885C14.4583 6.33052 13.1947 7.37234 12.068 7.07546ZM1.81775 6.00668C2.87851 5.75315 4.04527 6.57057 4.42448 7.83278C4.80332 9.09498 4.25072 10.3237 3.18996 10.5772C2.1292 10.8307 0.96244 10.0133 0.583235 8.7511C0.204391 7.4889 0.756992 6.26022 1.81775 6.00668ZM7.51023 7.07546C6.38317 7.37197 5.11987 6.33052 4.68858 4.74885C4.25728 3.16718 4.82117 1.64489 5.94823 1.34801C7.07529 1.05113 8.33858 2.09295 8.76988 3.67461C9.20117 5.25628 8.63728 6.77894 7.51023 7.07546Z" fill="#63261D"/>
</g>
<defs>
<clipPath id="clip0_224_2346">
<rect width="18.6507" height="18.6507" fill="white" transform="matrix(-1 0 0 1 19.1143 0.132324)"/>
</clipPath>
</defs>
</svg>
