<svg width="29" height="29" viewBox="0 0 29 29" fill="none" xmlns="http://www.w3.org/2000/svg">
<g id="bookmark-svgrepo-com 1">
<path id="Vector" d="M4.38013 13.3947V19.2511C4.38013 22.8828 4.38013 24.6987 5.2411 25.4921C5.65171 25.8705 6.17001 26.1083 6.72214 26.1714C7.87982 26.3039 9.23175 25.1081 11.9356 22.7166C13.1307 21.6595 13.7284 21.131 14.4197 20.9917C14.7602 20.9231 15.1106 20.9231 15.4511 20.9917C16.1425 21.131 16.7401 21.6595 17.9352 22.7166C20.6392 25.1081 21.9911 26.3039 23.1487 26.1714C23.7009 26.1083 24.2192 25.8705 24.6298 25.4921C25.4907 24.6987 25.4907 22.8828 25.4907 19.2511V13.3947C25.4907 8.36504 25.4907 5.85017 23.945 4.28763C22.3992 2.7251 19.9112 2.7251 14.9354 2.7251C9.95961 2.7251 7.4717 2.7251 5.92592 4.28763C4.9792 5.24461 4.6123 6.55879 4.47011 8.58915" stroke="#292929" stroke-width="2.34562" stroke-linecap="round"/>
</g>
</svg>
